<svg xmlns="http://www.w3.org/2000/svg" width="86.117" height="71.78" viewBox="0 0 86.117 71.78">
  <g id="Grupo_158841" data-name="Grupo 158841" transform="translate(6555.577 6848.864)">
    <g id="Grupo_158832" data-name="Grupo 158832" transform="translate(-7458 2868.7)">
      <path id="Unión_10" data-name="Unión 10" d="M8.251,10.548s.592-.9-.291-.665-2.032,1.451-1.768.465S20.086-4.71,28.01,1.639c0,0,4.713,4.315-5.876,9.225S10.395,25.326,10.392,27.086s.544,6.074-.594,5.064.45-6.036-.715-3.883.185,10.726,3.065,14.08c1.711,1.992,1.6,2.71,1.232,2.964a.573.573,0,0,1-.818-.223c-.649-1.207-2.772-5.036-3.125-4.17-.506,1.243,1.662,4.552,2.822,5.919s1.885,2.749.453,2.835H12.7C11.172,49.674-11.982,31.866,8.251,10.548Z" transform="translate(903 -9716.7)" fill="#fcc02d" stroke="rgba(0,0,0,0)" stroke-miterlimit="10" stroke-width="1" opacity="0.42"/>
      <path id="Unión_11" data-name="Unión 11" d="M0,50.788C33.9,59.2,49.06,40.152,49.8,28.747S44.935,14.78,44.75,13.667a16.163,16.163,0,0,1-.5-2.454c-.2-1.793-2.4-1.127-3.784-3.914s2.023-1.778,2.426-1.477,3.074,4.4,3.131,2.386-4.593-7.03-4.593-7.03c.018-1.055.51-1.308,1.216-1.119,1.87.5,5.235,4.1,5.235,4.1,18.28,25.586-.163,40.657-2.247,41.935s-1.218,1.661-1.218,1.661c3.579-.727,2.074.556,2.074.556A35.968,35.968,0,0,1,23.3,56.14,57.347,57.347,0,0,1,0,50.788Z" transform="translate(932.115 -9702.424)" fill="#fd7f23" stroke="rgba(0,0,0,0)" stroke-miterlimit="10" stroke-width="1" opacity="0.48"/>
      <path id="Unión_9" data-name="Unión 9" d="M.257,31.668c2.556-13.842,15.15-18,20.8-21.856C28.76,4.553,22.152,0,22.152,0s.1.02.292.071c1.513.406,8.5,2.747,11.611,12.044,3.109,5.289,11.424,7.026,19.277,8.639,5.471,1.124,10.718,2.188,13.825,4.35,7.566,5.27,8.124,7,8.786,10.54S81.223,59.747,52.319,67a41.881,41.881,0,0,1-10.213,1.266C17.542,68.273-2.515,46.675.257,31.668Z" transform="translate(906.017 -9716.625)" fill="#fff" stroke="rgba(0,0,0,0)" stroke-miterlimit="10" stroke-width="1"/>
      <ellipse id="Elipse_5489" data-name="Elipse 5489" cx="5.047" cy="5.047" rx="5.047" ry="5.047" transform="translate(942.76 -9714.281)" fill="#fff"/>
    </g>
    <g id="a-tiempo_1_" data-name="a-tiempo(1)" transform="translate(-6542 -6847)">
      <path id="Trazado_604074" data-name="Trazado 604074" d="M25.3,50.488a25.219,25.219,0,0,0,6.381-.816,13.442,13.442,0,0,0,12.091,7.645A13.616,13.616,0,0,0,57.317,43.771a13.441,13.441,0,0,0-7.645-12.091A25.254,25.254,0,1,0,25.3,50.488Zm28.658-6.717A10.324,10.324,0,0,1,43.771,53.959,10.131,10.131,0,1,1,53.959,43.771ZM25.3,3.358A21.947,21.947,0,0,1,46.479,30.608a13.662,13.662,0,0,0-2.708-.27A13.449,13.449,0,0,0,30.338,43.771a13.662,13.662,0,0,0,.27,2.708A21.893,21.893,0,1,1,25.3,3.358Z" transform="translate(0 0)" fill="#7d5f54"/>
      <path id="Trazado_604075" data-name="Trazado 604075" d="M211,61h3.358v3.358H211Z" transform="translate(-187.379 -54.171)" fill="#7d5f54"/>
      <path id="Trazado_604076" data-name="Trazado 604076" d="M211,361h3.358v3.358H211Z" transform="translate(-187.379 -320.587)" fill="#7d5f54"/>
      <path id="Trazado_604077" data-name="Trazado 604077" d="M0,0H3.358V3.358H0Z" transform="translate(11.049 13.426) rotate(-45)" fill="#7d5f54"/>
      <path id="Trazado_604078" data-name="Trazado 604078" d="M0,0H3.358V3.358H0Z" transform="translate(11.047 37.171) rotate(-45)" fill="#7d5f54"/>
      <path id="Trazado_604079" data-name="Trazado 604079" d="M0,0H3.358V3.358H0Z" transform="translate(34.794 13.428) rotate(-45)" fill="#7d5f54"/>
      <path id="Trazado_604080" data-name="Trazado 604080" d="M61,211h3.358v3.358H61Z" transform="translate(-54.171 -187.379)" fill="#7d5f54"/>
      <path id="Trazado_604081" data-name="Trazado 604081" d="M361,211h3.358v3.358H361Z" transform="translate(-320.587 -187.379)" fill="#7d5f54"/>
      <path id="Trazado_604082" data-name="Trazado 604082" d="M221.075,131.075h-6.717V121H211v13.434h10.075Z" transform="translate(-187.379 -107.454)" fill="#7d5f54"/>
      <path id="Trazado_604083" data-name="Trazado 604083" d="M337.769,353.752l-2.375,2.375,4.546,4.546,7.9-7.9-2.375-2.375-5.53,5.53Z" transform="translate(-297.848 -311.168)" fill="#7d5f54"/>
    </g>
  </g>
</svg>
