<svg xmlns="http://www.w3.org/2000/svg" width="86.117" height="71.78" viewBox="0 0 86.117 71.78">
  <g id="Grupo_160167" data-name="Grupo 160167" transform="translate(6555.577 5979.864)">
    <g id="Grupo_158834" data-name="Grupo 158834" transform="translate(-7458 3737.7)">
      <path id="Unión_10" data-name="Unión 10" d="M8.251,10.548s.592-.9-.291-.665-2.032,1.451-1.768.465S20.086-4.71,28.01,1.639c0,0,4.713,4.315-5.876,9.225S10.395,25.326,10.392,27.086s.544,6.074-.594,5.064.45-6.036-.715-3.883.185,10.726,3.065,14.08c1.711,1.992,1.6,2.71,1.232,2.964a.573.573,0,0,1-.818-.223c-.649-1.207-2.772-5.036-3.125-4.17-.506,1.243,1.662,4.552,2.822,5.919s1.885,2.749.453,2.835H12.7C11.172,49.674-11.982,31.866,8.251,10.548Z" transform="translate(903 -9716.7)" fill="#fcc02d" stroke="rgba(0,0,0,0)" stroke-miterlimit="10" stroke-width="1" opacity="0.42"/>
      <path id="Unión_11" data-name="Unión 11" d="M0,50.788C33.9,59.2,49.06,40.152,49.8,28.747S44.935,14.78,44.75,13.667a16.163,16.163,0,0,1-.5-2.454c-.2-1.793-2.4-1.127-3.784-3.914s2.023-1.778,2.426-1.477,3.074,4.4,3.131,2.386-4.593-7.03-4.593-7.03c.018-1.055.51-1.308,1.216-1.119,1.87.5,5.235,4.1,5.235,4.1,18.28,25.586-.163,40.657-2.247,41.935s-1.218,1.661-1.218,1.661c3.579-.727,2.074.556,2.074.556A35.968,35.968,0,0,1,23.3,56.14,57.347,57.347,0,0,1,0,50.788Z" transform="translate(932.115 -9702.424)" fill="#fd7f23" stroke="rgba(0,0,0,0)" stroke-miterlimit="10" stroke-width="1" opacity="0.48"/>
      <path id="Unión_9" data-name="Unión 9" d="M.257,31.668c2.556-13.842,15.15-18,20.8-21.856C28.76,4.553,22.152,0,22.152,0s.1.02.292.071c1.513.406,8.5,2.747,11.611,12.044,3.109,5.289,11.424,7.026,19.277,8.639,5.471,1.124,10.718,2.188,13.825,4.35,7.566,5.27,8.124,7,8.786,10.54S81.223,59.747,52.319,67a41.881,41.881,0,0,1-10.213,1.266C17.542,68.273-2.515,46.675.257,31.668Z" transform="translate(906.017 -9716.625)" fill="#fff" stroke="rgba(0,0,0,0)" stroke-miterlimit="10" stroke-width="1"/>
      <ellipse id="Elipse_5489" data-name="Elipse 5489" cx="5.047" cy="5.047" rx="5.047" ry="5.047" transform="translate(942.76 -9714.281)" fill="#fff"/>
    </g>
    <g id="planta_2_" data-name="planta(2)" transform="translate(-6541.158 -5978)">
      <path id="Trazado_604093" data-name="Trazado 604093" d="M56.963,45.575l-1.178-1.513A6.18,6.18,0,0,0,47.8,42.523,23.257,23.257,0,0,0,33.646,25.017V19.233h3.631A12.276,12.276,0,0,0,49.551,6.982v-5.3A1.681,1.681,0,0,0,47.868,0H42.555A12.284,12.284,0,0,0,31.964,6.067,12.283,12.283,0,0,0,21.373,0H16.06a1.681,1.681,0,0,0-1.682,1.679v5.3A12.276,12.276,0,0,0,26.651,19.233h3.631v5.8A25.071,25.071,0,0,0,22.7,30.065a8.46,8.46,0,0,0-8.443-.97L10.1,30.933v-.6a1.682,1.682,0,0,0-3.365,0v2.09L1,34.96a1.679,1.679,0,0,0-1,1.535V53.287a1.683,1.683,0,0,0,2.351,1.541l4.384-1.9v.92a1.682,1.682,0,0,0,3.365,0V51.477l1.7-.737L27.983,57.2a1.686,1.686,0,0,0,.625.12H42.061a1.685,1.685,0,0,0,.933-.282L56.568,48a1.678,1.678,0,0,0,.4-2.427ZM44.676,44.393l-4.758,2.848H33.65a8.086,8.086,0,0,0-2.03-9.391l-6.368-5.578a21.784,21.784,0,0,1,6.729-4.3A21.655,21.655,0,0,1,37.85,31.5,19.107,19.107,0,0,1,44.676,44.393ZM42.555,3.358h3.631V6.983a8.911,8.911,0,0,1-8.909,8.892H36.026l6.2-6.186a1.681,1.681,0,0,0-2.379-2.375l-6.2,6.186V12.251A8.91,8.91,0,0,1,42.555,3.358ZM17.742,6.983V3.358h3.631a8.911,8.911,0,0,1,8.909,8.892V13.5l-6.2-6.186a1.681,1.681,0,0,0-2.379,2.375l6.2,6.186H26.651A8.911,8.911,0,0,1,17.742,6.983ZM3.365,50.729V37.587L6.735,36.1V49.272Zm38.187,3.229H28.931L12.4,47.362a1.685,1.685,0,0,0-1.293.018l-1.01.437V34.606l5.512-2.439a5.072,5.072,0,0,1,5.362.825L29.4,40.374a4.719,4.719,0,0,1,1.248,5.334L21.2,38.129a1.68,1.68,0,1,0-2.108,2.618L30.913,50.23a1.684,1.684,0,0,0,1.054.37h8.417a1.684,1.684,0,0,0,.865-.239l8.223-4.922a2.809,2.809,0,0,1,3.657.683l.068.087Z" transform="translate(0)" fill="#7d5f54"/>
    </g>
  </g>
</svg>
