<svg xmlns="http://www.w3.org/2000/svg" width="86.117" height="71.78" viewBox="0 0 86.117 71.78">
  <g id="Grupo_160169" data-name="Grupo 160169" transform="translate(6555.577 5379.864)">
    <g id="Grupo_158836" data-name="Grupo 158836" transform="translate(-7458 4337.7)">
      <path id="Unión_10" data-name="Unión 10" d="M8.251,10.548s.592-.9-.291-.665-2.032,1.451-1.768.465S20.086-4.71,28.01,1.639c0,0,4.713,4.315-5.876,9.225S10.395,25.326,10.392,27.086s.544,6.074-.594,5.064.45-6.036-.715-3.883.185,10.726,3.065,14.08c1.711,1.992,1.6,2.71,1.232,2.964a.573.573,0,0,1-.818-.223c-.649-1.207-2.772-5.036-3.125-4.17-.506,1.243,1.662,4.552,2.822,5.919s1.885,2.749.453,2.835H12.7C11.172,49.674-11.982,31.866,8.251,10.548Z" transform="translate(903 -9716.7)" fill="#fcc02d" stroke="rgba(0,0,0,0)" stroke-miterlimit="10" stroke-width="1" opacity="0.42"/>
      <path id="Unión_11" data-name="Unión 11" d="M0,50.788C33.9,59.2,49.06,40.152,49.8,28.747S44.935,14.78,44.75,13.667a16.163,16.163,0,0,1-.5-2.454c-.2-1.793-2.4-1.127-3.784-3.914s2.023-1.778,2.426-1.477,3.074,4.4,3.131,2.386-4.593-7.03-4.593-7.03c.018-1.055.51-1.308,1.216-1.119,1.87.5,5.235,4.1,5.235,4.1,18.28,25.586-.163,40.657-2.247,41.935s-1.218,1.661-1.218,1.661c3.579-.727,2.074.556,2.074.556A35.968,35.968,0,0,1,23.3,56.14,57.347,57.347,0,0,1,0,50.788Z" transform="translate(932.115 -9702.424)" fill="#fd7f23" stroke="rgba(0,0,0,0)" stroke-miterlimit="10" stroke-width="1" opacity="0.48"/>
      <path id="Unión_9" data-name="Unión 9" d="M.257,31.668c2.556-13.842,15.15-18,20.8-21.856C28.76,4.553,22.152,0,22.152,0s.1.02.292.071c1.513.406,8.5,2.747,11.611,12.044,3.109,5.289,11.424,7.026,19.277,8.639,5.471,1.124,10.718,2.188,13.825,4.35,7.566,5.27,8.124,7,8.786,10.54S81.223,59.747,52.319,67a41.881,41.881,0,0,1-10.213,1.266C17.542,68.273-2.515,46.675.257,31.668Z" transform="translate(906.017 -9716.625)" fill="#fff" stroke="rgba(0,0,0,0)" stroke-miterlimit="10" stroke-width="1"/>
      <ellipse id="Elipse_5489" data-name="Elipse 5489" cx="5.047" cy="5.047" rx="5.047" ry="5.047" transform="translate(942.76 -9714.281)" fill="#fff"/>
    </g>
    <g id="profile" transform="translate(-6539 -5378)">
      <path id="Trazado_604097" data-name="Trazado 604097" d="M41.614,57.317H9.373A5.379,5.379,0,0,1,4,51.943V5.373A5.379,5.379,0,0,1,9.373,0H41.614a5.379,5.379,0,0,1,5.373,5.373V36.145a1.791,1.791,0,0,1-3.582,0V5.373a1.793,1.793,0,0,0-1.791-1.791H9.373A1.793,1.793,0,0,0,7.582,5.373v46.57a1.793,1.793,0,0,0,1.791,1.791H41.614a1.793,1.793,0,0,0,1.791-1.791V42.217a1.791,1.791,0,0,1,3.582,0v9.726a5.379,5.379,0,0,1-5.373,5.373Z" fill="#7d5f54"/>
      <path id="Trazado_604098" data-name="Trazado 604098" d="M22.33,32.659A14.329,14.329,0,1,1,32.463,8.2h0A14.329,14.329,0,0,1,22.33,32.659Zm0-25.076a10.747,10.747,0,1,0,7.6,3.148A10.747,10.747,0,0,0,22.33,7.582Z" transform="translate(3.164 3.164)" fill="#7d5f54"/>
      <path id="Trazado_604099" data-name="Trazado 604099" d="M31.888,33.257a5.336,5.336,0,0,1-3.8-1.57l-9.234-9.233a1.791,1.791,0,1,1,2.533-2.533l9.234,9.233a1.843,1.843,0,0,0,2.533,0,1.8,1.8,0,0,0,0-2.532l-9.232-9.234a1.791,1.791,0,1,1,2.533-2.533l9.232,9.233a5.369,5.369,0,0,1-3.8,9.168Z" transform="translate(11.337 11.338)" fill="#7d5f54"/>
      <path id="Trazado_604100" data-name="Trazado 604100" d="M27.7,25.582H9.791a1.791,1.791,0,0,1,0-3.582H27.7a1.791,1.791,0,0,1,0,3.582Z" transform="translate(3.165 17.405)" fill="#7d5f54"/>
      <path id="Trazado_604101" data-name="Trazado 604101" d="M34.867,29.582H9.791a1.791,1.791,0,1,1,0-3.582H34.867a1.791,1.791,0,1,1,0,3.582Z" transform="translate(3.165 20.57)" fill="#7d5f54"/>
      <path id="Trazado_604102" data-name="Trazado 604102" d="M19.165,22.329a7.165,7.165,0,1,1,7.165-7.165,7.165,7.165,0,0,1-7.165,7.165Zm0-10.747a3.582,3.582,0,1,0,3.582,3.582,3.582,3.582,0,0,0-3.582-3.582Z" transform="translate(6.329 6.329)" fill="#7d5f54"/>
      <path id="Trazado_604103" data-name="Trazado 604103" d="M26.682,22.706a1.794,1.794,0,0,1-1.718-1.282,5.364,5.364,0,0,0-10.286,0,1.791,1.791,0,1,1-3.434-1.02,8.946,8.946,0,0,1,17.155,0,1.795,1.795,0,0,1-1.718,2.3Z" transform="translate(5.672 11.076)" fill="#7d5f54"/>
    </g>
  </g>
</svg>
