<svg xmlns="http://www.w3.org/2000/svg" width="196.943" height="191.562" viewBox="0 0 196.943 191.562">
  <g id="Grupo_160032" data-name="Grupo 160032" transform="translate(-285 -396)">
    <g id="Grupo_158632" data-name="Grupo 158632" transform="translate(0 -9)">
      <rect id="Rect치ngulo_44798" data-name="Rect치ngulo 44798" width="85" height="190" transform="translate(285 405)" fill="#fff"/>
      <g id="colombia_1_" data-name="colombia(1)" transform="translate(285 405)">
        <path id="Trazado_602005" data-name="Trazado 602005" d="M165.061,97.133c0,52.465-34.618,69.513-87.083,69.513-33.751,0-46.368,5.753-63.219-20.772A95.005,95.005,0,0,1,157.811,23.728c19.738,17.408,7.25,45.02,7.25,73.405Z" transform="translate(0)" fill="#cbe2ff"/>
        <path id="Trazado_602006" data-name="Trazado 602006" d="M53.8,132.912,44.025,144.2l-6.776-4.635a2.71,2.71,0,0,1-.386-4.156,2.713,2.713,0,0,0-.557-4.264l-6.461-3.759a2.722,2.722,0,0,0-3.121.278L21.73,131.9a94.474,94.474,0,0,1,6.513-12.231,2.736,2.736,0,0,1,1.1.16l23,8.409.965.679A2.712,2.712,0,0,1,53.8,132.912Z" transform="translate(-13.666 -75.259)" fill="#70866e"/>
        <path id="Trazado_602007" data-name="Trazado 602007" d="M214.268,121.788A95.007,95.007,0,0,1,39.026,172.661l-.286-1.084a4.673,4.673,0,0,1,2.542-5.418l11.307-5.281a4.851,4.851,0,0,0,.779-.464l26.236-19.193a4.663,4.663,0,0,0,1.648-2.215l29.506-83.76a4.669,4.669,0,0,1,2.275-2.6l10.721-5.492a4.666,4.666,0,0,1,5.963,1.5l.683.98a4.665,4.665,0,0,1,.278,4.861l-3.088,5.774a4.665,4.665,0,0,0,.635,5.31l1.384,1.551a4.665,4.665,0,0,0,6.383.549l1.826-1.447a4.669,4.669,0,0,0,.831-6.457L136.3,56.642a4.675,4.675,0,0,1-.887-3.462l.282-1.959a4.661,4.661,0,0,1,3.87-3.948l28.326-4.616a4.668,4.668,0,0,1,4.9,2.471l1.651,3.214a4.669,4.669,0,0,0,4.665,2.5l2.969-.33a94.77,94.77,0,0,1,32.189,71.272Z" transform="translate(-24.268 -26.788)" fill="#70866e"/>
      </g>
    </g>
    <path id="Uni칩n_13" data-name="Uni칩n 13" d="M10850.655,11869.62c75.9,18.358,113.765-39.073,117.406-72.032s-8.679-39.369-8.911-42.542-.583-1.853-.723-6.979-5.294-2.832-7.959-10.618,4.92-5.464,5.79-4.669,6.252,12.141,6.728,6.33-9.265-19.448-9.265-19.448c.222-3.039,1.39-3.852,2.967-3.43,4.18,1.12,11.236,10.91,11.236,10.91,37.293,70.5-7.38,117.068-12.356,121.1s-3.062,4.992-3.062,4.992c8.29-2.709,4.637,1.243,4.637,1.243-20.029,20.738-41.951,26.768-60.668,26.769A99.465,99.465,0,0,1,10850.655,11869.62Z" transform="translate(-10501.293 -11294.189)" fill="#fd7f23" stroke="rgba(0,0,0,0)" stroke-miterlimit="10" stroke-width="1"/>
    <path id="Trazado_603806" data-name="Trazado 603806" d="M206.079,125.345l-2.459-4.773-1-1.938a35.308,35.308,0,0,0-2.7-4.25,2.815,2.815,0,0,1,.666-3.923l3.747-2.661a2.811,2.811,0,0,0,.548-4.071L196.329,93.27a2.814,2.814,0,0,1-.3-3.118l5.224-9.656a2.81,2.81,0,0,0-2.661-4.141l-20.424,1.389a2.8,2.8,0,0,1-2.046-.693l-6.9-6.06a2.809,2.809,0,0,0-1.8-.7l-23.359-.431a2.812,2.812,0,0,1-2.664-3.537l.891-3.342a2.808,2.808,0,0,0-.148-1.87l-4.29-9.6a2.815,2.815,0,0,0-2.568-1.664h-4.443a2.809,2.809,0,0,1-2.433-4.217l9.656-16.7a2.794,2.794,0,0,1,.906-.953L153.156,18.8a2.811,2.811,0,0,0,.5-4.31L151,11.731a2.812,2.812,0,0,0-3.695-.312L127.178,26.284a2.811,2.811,0,0,1-1.542.545l-8.3.379a2.808,2.808,0,0,0-2.641,2.313,2.81,2.81,0,0,1-4.669,1.573l-.634-.581a2.81,2.81,0,0,0-3.975.169l-7.912,8.649a2.813,2.813,0,0,0-.42,3.191l1.3,2.511a2.814,2.814,0,0,1-1.441,3.9l-1.4.569a2.758,2.758,0,0,0-.929.618L87.735,57a2.812,2.812,0,0,0-.777,1.478L86.621,60.3a2.812,2.812,0,0,1-4.383,1.786l-1.174-.828a2.814,2.814,0,0,0-3.872.621l-7.275,9.76a2.809,2.809,0,0,0,.616,3.962l6.751,4.848a2.812,2.812,0,0,1,1.156,1.994l2.329,22.6a2.814,2.814,0,0,0,1.171,2l3.37,2.386a2.81,2.81,0,0,1,.984,3.336l-4.217,10.544a2.808,2.808,0,0,1-2.428,1.76l-5.2.338a2.793,2.793,0,0,0-1.807.815l-7.909,7.909a2.812,2.812,0,0,0,.714,4.495L92.921,152.59a2.813,2.813,0,0,0,3.612-.948l2.272-3.407a2.808,2.808,0,0,1,3.845-.813l16.407,10.42a2.86,2.86,0,0,0,.951.384l17.7,3.583a2.813,2.813,0,0,1,2.254,2.755v7.021a2.808,2.808,0,0,0,2.854,2.809l24.8-.4a2.809,2.809,0,0,1,2.6,3.983l-4.077,8.883a2.808,2.808,0,0,0,1.68,3.843l8.595,2.817a2.81,2.81,0,0,0,3.679-2.482l2.285-33.823a2.823,2.823,0,0,0-.42-1.68l-7.073-11.316a2.813,2.813,0,0,1,.927-3.895l4.822-2.919a2.811,2.811,0,0,0,.841-4.027l-2.841-4.014a2.811,2.811,0,0,1,2.134-4.43l16.979-.963a.286.286,0,0,0,.047-.005l2.3,4.461a3.366,3.366,0,1,0,5.985-3.084Z" transform="translate(244.809 389.164)" fill="#a1d29f"/>
    <g id="Grupo_158783" data-name="Grupo 158783" transform="translate(299.246 404.377)">
      <path id="Trazado_602010" data-name="Trazado 602010" d="M203.936,122.221l-7.774-2.522V109.688l7.774,1.838Z" transform="translate(-123.367 -68.983)" fill="#365e7d"/>
      <path id="Trazado_602012" data-name="Trazado 602012" d="M198.877,122.221l-2.715-2.522V109.688l2.715,1.838Z" transform="translate(-123.367 -68.983)" fill="#2b4d66"/>
      <g id="Grupo_158633" data-name="Grupo 158633">
        <path id="Trazado_602009" data-name="Trazado 602009" d="M203.936,255.264h-7.774V209.782l7.774,1.838Z" transform="translate(-123.367 -131.934)" fill="#365e7d"/>
        <path id="Trazado_602011" data-name="Trazado 602011" d="M198.877,255.264h-2.715V209.782l2.715,1.838Z" transform="translate(-123.367 -131.934)" fill="#2b4d66"/>
        <g id="Grupo_158631" data-name="Grupo 158631" transform="translate(72.795 44.064)">
          <path id="Trazado_602013" data-name="Trazado 602013" d="M250.869,132.485l-26.353,4.078-28.354-4.078v-7.092a6.651,6.651,0,0,1,6.651-6.651h41.405a6.651,6.651,0,0,1,6.651,6.651Z" transform="translate(-196.162 -118.742)" fill="#ffd064"/>
          <path id="Trazado_602014" data-name="Trazado 602014" d="M244.218,193.442H202.813a6.651,6.651,0,0,1-6.651-6.651V179.7l27.353-6.475,27.353,6.475v7.092A6.651,6.651,0,0,1,244.218,193.442Z" transform="translate(-196.162 -153.006)" fill="#da4a54"/>
          <path id="Trazado_602015" data-name="Trazado 602015" d="M196.162,155.775h54.707v12.95H196.162Z" transform="translate(-196.162 -142.032)" fill="#30579d"/>
        </g>
        <path id="Trazado_602016" data-name="Trazado 602016" d="M199.491,86.548V86.07a3.1,3.1,0,0,0-2.827-3.126,3.029,3.029,0,0,0-3.23,3.022v.581a6.652,6.652,0,0,1-1.925,4.673,2.926,2.926,0,0,0-.843,2.213,3.019,3.019,0,0,0,3.054,2.791h5.485a3.019,3.019,0,0,0,3.054-2.791,2.927,2.927,0,0,0-.843-2.213A6.649,6.649,0,0,1,199.491,86.548Z" transform="translate(-119.909 -52.16)" fill="#365e7d"/>
        <path id="Trazado_602017" data-name="Trazado 602017" d="M194.263,91.222a5.374,5.374,0,0,0-.371,2.212c.033,1.585.649,2.791,1.354,2.791h-1.525a3.022,3.022,0,0,1-3.054-2.791,2.944,2.944,0,0,1,.842-2.212,6.65,6.65,0,0,0,1.926-4.672v-.583a3.027,3.027,0,0,1,3.028-3.028c-.742,0-1.343,1.354-1.343,3.028v.583a12,12,0,0,1-.857,4.672Z" transform="translate(-119.91 -52.161)" fill="#2b4d66"/>
      </g>
    </g>
  </g>
</svg>
