<svg xmlns="http://www.w3.org/2000/svg" width="86.117" height="71.78" viewBox="0 0 86.117 71.78">
  <g id="Grupo_160177" data-name="Grupo 160177" transform="translate(6555.577 4432.864)">
    <g id="Grupo_158839" data-name="Grupo 158839" transform="translate(-7458 5284.7)">
      <path id="Unión_10" data-name="Unión 10" d="M8.251,10.548s.592-.9-.291-.665-2.032,1.451-1.768.465S20.086-4.71,28.01,1.639c0,0,4.713,4.315-5.876,9.225S10.395,25.326,10.392,27.086s.544,6.074-.594,5.064.45-6.036-.715-3.883.185,10.726,3.065,14.08c1.711,1.992,1.6,2.71,1.232,2.964a.573.573,0,0,1-.818-.223c-.649-1.207-2.772-5.036-3.125-4.17-.506,1.243,1.662,4.552,2.822,5.919s1.885,2.749.453,2.835H12.7C11.172,49.674-11.982,31.866,8.251,10.548Z" transform="translate(903 -9716.7)" fill="#fcc02d" stroke="rgba(0,0,0,0)" stroke-miterlimit="10" stroke-width="1" opacity="0.42"/>
      <path id="Unión_11" data-name="Unión 11" d="M0,50.788C33.9,59.2,49.06,40.152,49.8,28.747S44.935,14.78,44.75,13.667a16.163,16.163,0,0,1-.5-2.454c-.2-1.793-2.4-1.127-3.784-3.914s2.023-1.778,2.426-1.477,3.074,4.4,3.131,2.386-4.593-7.03-4.593-7.03c.018-1.055.51-1.308,1.216-1.119,1.87.5,5.235,4.1,5.235,4.1,18.28,25.586-.163,40.657-2.247,41.935s-1.218,1.661-1.218,1.661c3.579-.727,2.074.556,2.074.556A35.968,35.968,0,0,1,23.3,56.14,57.347,57.347,0,0,1,0,50.788Z" transform="translate(932.115 -9702.424)" fill="#fd7f23" stroke="rgba(0,0,0,0)" stroke-miterlimit="10" stroke-width="1" opacity="0.48"/>
      <path id="Unión_9" data-name="Unión 9" d="M.257,31.668c2.556-13.842,15.15-18,20.8-21.856C28.76,4.553,22.152,0,22.152,0s.1.02.292.071c1.513.406,8.5,2.747,11.611,12.044,3.109,5.289,11.424,7.026,19.277,8.639,5.471,1.124,10.718,2.188,13.825,4.35,7.566,5.27,8.124,7,8.786,10.54S81.223,59.747,52.319,67a41.881,41.881,0,0,1-10.213,1.266C17.542,68.273-2.515,46.675.257,31.668Z" transform="translate(906.017 -9716.625)" fill="#fff" stroke="rgba(0,0,0,0)" stroke-miterlimit="10" stroke-width="1"/>
      <ellipse id="Elipse_5489" data-name="Elipse 5489" cx="5.047" cy="5.047" rx="5.047" ry="5.047" transform="translate(942.76 -9714.281)" fill="#fff"/>
    </g>
    <g id="escudo" transform="translate(-6592.453 -4431)">
      <g id="Grupo_158856" data-name="Grupo 158856" transform="translate(57.196 0)">
        <path id="Trazado_604114" data-name="Trazado 604114" d="M79.457,57.317,67.871,49.206A25.047,25.047,0,0,1,57.2,28.7V8.657L79.453,0l22.257,8.657V28.706a25.047,25.047,0,0,1-10.671,20.5Zm-18.9-46.363V28.7A21.687,21.687,0,0,0,69.8,46.456l9.661,6.763,9.657-6.762a21.687,21.687,0,0,0,9.24-17.75V10.954L79.453,3.6Z" transform="translate(-57.196 0)" fill="#7d5f54"/>
      </g>
      <g id="Grupo_158857" data-name="Grupo 158857" transform="translate(64.145 7.906)">
        <path id="Trazado_604115" data-name="Trazado 604115" d="M134.6,111.03l-8-5.6a17.156,17.156,0,0,1-7.312-14.044V76.6L134.6,70.647,149.9,76.6V91.389a17.157,17.157,0,0,1-7.309,14.042ZM122.645,78.9V91.387a13.8,13.8,0,0,0,5.88,11.293l6.073,4.251,6.071-4.251a13.8,13.8,0,0,0,5.878-11.292V78.9L134.6,74.249Z" transform="translate(-119.288 -70.647)" fill="#7d5f54"/>
      </g>
      <g id="Grupo_158858" data-name="Grupo 158858" transform="translate(70.918 21.927)">
        <path id="Trazado_604116" data-name="Trazado 604116" d="M186.762,208.408l-6.959-6.959,2.374-2.374,4.585,4.585,7.738-7.738,2.374,2.374Z" transform="translate(-179.803 -195.922)" fill="#7d5f54"/>
      </g>
    </g>
  </g>
</svg>
