<svg xmlns="http://www.w3.org/2000/svg" width="85" height="85" viewBox="0 0 85 85">
  <g id="Grupo_160168" data-name="Grupo 160168" transform="translate(-409 -1374.846)">
    <g id="Grupo_160127" data-name="Grupo 160127">
      <circle id="Elipse_5526" data-name="Elipse 5526" cx="42.5" cy="42.5" r="42.5" transform="translate(409 1374.846)" fill="#7d5f54"/>
      <g id="calendario_4_" data-name="calendario(4)" transform="translate(416.064 1364.279)">
        <g id="Grupo_160084" data-name="Grupo 160084" transform="translate(1.095 26.219)">
          <path id="Trazado_608356" data-name="Trazado 608356" d="M69.652,95.864H14.187L7.5,100.773v34.8a5.364,5.364,0,0,0,5.364,5.364h55.83a4.95,4.95,0,0,0,4.951-4.95V100.773Z" transform="translate(-7.501 -86.633)" fill="#f9f7f8"/>
          <path id="Trazado_608357" data-name="Trazado 608357" d="M264.672,218.841a20.708,20.708,0,0,0-19.69,27.12h25.661a4.951,4.951,0,0,0,4.951-4.95V221.963A20.581,20.581,0,0,0,264.672,218.841Z" transform="translate(-209.449 -191.66)" fill="#efedef"/>
          <circle id="Elipse_5529" data-name="Elipse 5529" cx="17.058" cy="17.058" r="17.058" transform="translate(38.164 30.83)" fill="#fff6df"/>
          <path id="Trazado_608358" data-name="Trazado 608358" d="M274.115,260.9A17.062,17.062,0,0,1,288.6,244.034a17.059,17.059,0,1,0,0,33.731A17.063,17.063,0,0,1,274.115,260.9Z" transform="translate(-230.802 -213.011)" fill="#fcc02d" opacity="0.34"/>
          <path id="Trazado_608359" data-name="Trazado 608359" d="M57.993,176.6H54.747a1.442,1.442,0,0,1-1.442-1.442v-3.246a1.442,1.442,0,0,1,1.442-1.442h3.246a1.442,1.442,0,0,1,1.442,1.442v3.246A1.442,1.442,0,0,1,57.993,176.6Z" transform="translate(-46.619 -150.35)" fill="#f79595"/>
          <path id="Trazado_608360" data-name="Trazado 608360" d="M137.514,176.6h-3.246a1.442,1.442,0,0,1-1.442-1.442v-3.246a1.442,1.442,0,0,1,1.442-1.442h3.246a1.442,1.442,0,0,1,1.442,1.442v3.246A1.442,1.442,0,0,1,137.514,176.6Z" transform="translate(-114.533 -150.35)" fill="#d4f2f6"/>
          <path id="Trazado_608361" data-name="Trazado 608361" d="M217.035,176.6h-3.246a1.442,1.442,0,0,1-1.442-1.442v-3.246a1.442,1.442,0,0,1,1.442-1.442h3.246a1.442,1.442,0,0,1,1.442,1.442v3.246A1.442,1.442,0,0,1,217.035,176.6Z" transform="translate(-182.447 -150.35)" fill="#d4f2f6"/>
          <path id="Trazado_608362" data-name="Trazado 608362" d="M296.557,176.6h-3.246a1.442,1.442,0,0,1-1.442-1.442v-3.246a1.442,1.442,0,0,1,1.442-1.442h3.246A1.442,1.442,0,0,1,298,171.912v3.246A1.442,1.442,0,0,1,296.557,176.6Z" transform="translate(-250.362 -150.35)" fill="#d4f2f6"/>
          <path id="Trazado_608363" data-name="Trazado 608363" d="M376.078,176.6h-3.246a1.442,1.442,0,0,1-1.442-1.442v-3.246a1.442,1.442,0,0,1,1.442-1.442h3.246a1.442,1.442,0,0,1,1.442,1.442v3.246A1.442,1.442,0,0,1,376.078,176.6Z" transform="translate(-318.275 -150.35)" fill="#d4f2f6"/>
          <path id="Trazado_608364" data-name="Trazado 608364" d="M57.993,252.361H54.747a1.442,1.442,0,0,1-1.442-1.442v-3.246a1.442,1.442,0,0,1,1.442-1.442h3.246a1.442,1.442,0,0,1,1.442,1.442v3.246A1.442,1.442,0,0,1,57.993,252.361Z" transform="translate(-46.619 -215.052)" fill="#f79595"/>
          <path id="Trazado_608365" data-name="Trazado 608365" d="M137.514,252.361h-3.246a1.442,1.442,0,0,1-1.442-1.442v-3.246a1.442,1.442,0,0,1,1.442-1.442h3.246a1.442,1.442,0,0,1,1.442,1.442v3.246A1.442,1.442,0,0,1,137.514,252.361Z" transform="translate(-114.533 -215.052)" fill="#d4f2f6"/>
          <path id="Trazado_608366" data-name="Trazado 608366" d="M217.035,252.361h-3.246a1.442,1.442,0,0,1-1.442-1.442v-3.246a1.442,1.442,0,0,1,1.442-1.442h3.246a1.442,1.442,0,0,1,1.442,1.442v3.246A1.442,1.442,0,0,1,217.035,252.361Z" transform="translate(-182.447 -215.052)" fill="#d4f2f6"/>
          <path id="Trazado_608367" data-name="Trazado 608367" d="M57.993,328.122H54.747a1.442,1.442,0,0,1-1.442-1.442v-3.246a1.442,1.442,0,0,1,1.442-1.442h3.246a1.442,1.442,0,0,1,1.442,1.442v3.246A1.442,1.442,0,0,1,57.993,328.122Z" transform="translate(-46.619 -279.755)" fill="#f79595"/>
          <path id="Trazado_608368" data-name="Trazado 608368" d="M137.514,328.122h-3.246a1.442,1.442,0,0,1-1.442-1.442v-3.246a1.442,1.442,0,0,1,1.442-1.442h3.246a1.442,1.442,0,0,1,1.442,1.442v3.246A1.442,1.442,0,0,1,137.514,328.122Z" transform="translate(-114.533 -279.755)" fill="#d4f2f6"/>
          <g id="Grupo_160082" data-name="Grupo 160082" transform="translate(0 4.469)">
            <g id="XMLID_1114_">
              <path id="Trazado_608369" data-name="Trazado 608369" d="M18.45,135.569v-34.8l6.686-4.909H14.187L7.5,100.772v34.8a5.364,5.364,0,0,0,5.364,5.364H23.814a5.364,5.364,0,0,1-5.364-5.364Z" transform="translate(-7.501 -91.102)" fill="#efedef"/>
              <g id="Grupo_160080" data-name="Grupo 160080" transform="translate(6.686 15.651)">
                <path id="Trazado_608370" data-name="Trazado 608370" d="M54.747,328.123h2.822v-6.13H54.747a1.442,1.442,0,0,0-1.442,1.442v3.246A1.442,1.442,0,0,0,54.747,328.123Z" transform="translate(-53.305 -299.876)" fill="#ee6161"/>
                <path id="Trazado_608371" data-name="Trazado 608371" d="M54.747,252.361h2.822v-6.13H54.747a1.442,1.442,0,0,0-1.442,1.442v3.246A1.442,1.442,0,0,0,54.747,252.361Z" transform="translate(-53.305 -235.173)" fill="#ee6161"/>
                <path id="Trazado_608372" data-name="Trazado 608372" d="M54.747,176.6h2.822v-6.13H54.747a1.442,1.442,0,0,0-1.442,1.442v3.246A1.442,1.442,0,0,0,54.747,176.6Z" transform="translate(-53.305 -170.47)" fill="#ee6161"/>
              </g>
              <g id="Grupo_160081" data-name="Grupo 160081" transform="translate(0 0)">
                <path id="Trazado_608373" data-name="Trazado 608373" d="M73.646,68.608v4.159H7.5V68.608a5.364,5.364,0,0,1,5.364-5.364H68.282A5.365,5.365,0,0,1,73.646,68.608Z" transform="translate(-7.501 -63.244)" fill="#f9dcc8"/>
              </g>
            </g>
          </g>
          <g id="Grupo_160083" data-name="Grupo 160083" transform="translate(11.905 0)">
            <path id="Trazado_608375" data-name="Trazado 608375" d="M220.844,41.86a2.262,2.262,0,0,1-2.262-2.262V34.887a2.262,2.262,0,0,1,4.524,0V39.6A2.262,2.262,0,0,1,220.844,41.86Z" transform="translate(-199.677 -32.625)" fill="#efedef"/>
            <path id="Trazado_608376" data-name="Trazado 608376" d="M156.085,41.86a2.262,2.262,0,0,1-2.262-2.262V34.887a2.262,2.262,0,1,1,4.524,0V39.6A2.262,2.262,0,0,1,156.085,41.86Z" transform="translate(-144.371 -32.625)" fill="#efedef"/>
            <path id="Trazado_608377" data-name="Trazado 608377" d="M91.327,41.86A2.262,2.262,0,0,1,89.065,39.6V34.887a2.262,2.262,0,1,1,4.524,0V39.6A2.262,2.262,0,0,1,91.327,41.86Z" transform="translate(-89.065 -32.625)" fill="#efedef"/>
            <path id="Trazado_608378" data-name="Trazado 608378" d="M285.6,41.86a2.262,2.262,0,0,0,2.262-2.262V34.887a2.262,2.262,0,1,0-4.524,0V39.6A2.262,2.262,0,0,0,285.6,41.86Z" transform="translate(-254.983 -32.625)" fill="#efedef"/>
            <path id="Trazado_608379" data-name="Trazado 608379" d="M350.361,41.86a2.262,2.262,0,0,0,2.262-2.262V34.887a2.262,2.262,0,1,0-4.524,0V39.6A2.262,2.262,0,0,0,350.361,41.86Z" transform="translate(-310.29 -32.625)" fill="#efedef"/>
          </g>
          <circle id="Elipse_5530" data-name="Elipse 5530" cx="2.769" cy="2.769" r="2.769" transform="translate(52.453 45.119)" fill="#fff"/>
        </g>
        <g id="Grupo_160085" data-name="Grupo 160085" transform="translate(0 25.124)">
          <path id="Trazado_608380" data-name="Trazado 608380" d="M35.86,79.425H6.459a4.275,4.275,0,0,1-4.27-4.27v-33.7H9.472a1.095,1.095,0,1,0,0-2.189H2.189V36.2a4.275,4.275,0,0,1,4.27-4.27h5.446v1.261a3.357,3.357,0,0,0,6.714,0V31.931h2.739v1.261a3.357,3.357,0,1,0,6.714,0V31.931H30.81v1.261a3.357,3.357,0,0,0,6.714,0V31.931h2.739v1.261a3.357,3.357,0,1,0,6.714,0V31.931h2.739v1.261a3.357,3.357,0,1,0,6.714,0V31.931h5.446a4.275,4.275,0,0,1,4.27,4.27v3.063H14.137a1.095,1.095,0,1,0,0,2.189H66.145V55.668a1.095,1.095,0,0,0,2.189,0V36.2a6.467,6.467,0,0,0-6.459-6.459H56.429V28.481a3.357,3.357,0,1,0-6.714,0v1.261H46.976V28.481a3.357,3.357,0,1,0-6.714,0v1.261H37.524V28.481a3.357,3.357,0,0,0-6.714,0v1.261H28.072V28.481a3.357,3.357,0,0,0-6.714,0v1.261H18.619V28.481a3.357,3.357,0,0,0-6.714,0v1.261H6.459A6.466,6.466,0,0,0,0,36.2V75.155a6.467,6.467,0,0,0,6.459,6.459h29.4a1.095,1.095,0,1,0,0-2.189ZM51.9,28.481a1.167,1.167,0,1,1,2.335,0v4.711a1.167,1.167,0,1,1-2.335,0Zm-9.452,0a1.167,1.167,0,1,1,2.335,0v4.711a1.167,1.167,0,1,1-2.335,0Zm-9.452,0a1.167,1.167,0,0,1,2.335,0v4.711a1.167,1.167,0,0,1-2.335,0Zm-9.452,0a1.167,1.167,0,0,1,2.335,0v4.711a1.167,1.167,0,0,1-2.335,0Zm-9.452,0a1.167,1.167,0,0,1,2.335,0v4.711a1.167,1.167,0,0,1-2.335,0Z" transform="translate(0 -25.124)"/>
          <path id="Trazado_608381" data-name="Trazado 608381" d="M279.617,236.34a18.226,18.226,0,0,0-15.706,9.046,1.095,1.095,0,0,0,1.893,1.1,15.891,15.891,0,1,1-1.658,4.055,1.095,1.095,0,0,0-2.122-.54,18.155,18.155,0,1,0,17.592-13.66Z" transform="translate(-223.3 -205.51)"/>
          <path id="Trazado_608382" data-name="Trazado 608382" d="M380.522,269.506v-.95a1.095,1.095,0,0,0-2.189,0v.95a1.095,1.095,0,0,0,2.189,0Z" transform="translate(-323.11 -232.09)"/>
          <path id="Trazado_608383" data-name="Trazado 608383" d="M319.468,295.438a1.095,1.095,0,0,0,.774-1.869l-.671-.672a1.095,1.095,0,1,0-1.548,1.548l.671.672A1.091,1.091,0,0,0,319.468,295.438Z" transform="translate(-271.329 -253.538)"/>
          <path id="Trazado_608384" data-name="Trazado 608384" d="M294.63,355.4a1.095,1.095,0,1,0,0-2.189h-.949a1.095,1.095,0,1,0,0,2.189Z" transform="translate(-249.879 -305.321)"/>
          <path id="Trazado_608385" data-name="Trazado 608385" d="M318.022,411.781a1.095,1.095,0,0,0,1.548,0l.671-.671a1.095,1.095,0,1,0-1.548-1.548l-.671.671A1.1,1.1,0,0,0,318.022,411.781Z" transform="translate(-271.328 -353.174)"/>
          <path id="Trazado_608386" data-name="Trazado 608386" d="M378.333,433.546v.95a1.095,1.095,0,0,0,2.189,0v-.95a1.095,1.095,0,0,0-2.189,0Z" transform="translate(-323.11 -372.996)"/>
          <path id="Trazado_608387" data-name="Trazado 608387" d="M434.687,411.111l.671.671a1.095,1.095,0,0,0,1.548-1.548l-.671-.671a1.095,1.095,0,0,0-1.548,1.548Z" transform="translate(-370.964 -353.175)"/>
          <path id="Trazado_608388" data-name="Trazado 608388" d="M459.619,355.4a1.095,1.095,0,1,0,0-2.189h-.949a1.095,1.095,0,1,0,0,2.189Z" transform="translate(-390.786 -305.321)"/>
          <path id="Trazado_608389" data-name="Trazado 608389" d="M435.461,295.438a1.091,1.091,0,0,0,.774-.321l.671-.672a1.095,1.095,0,1,0-1.548-1.548l-.671.672a1.095,1.095,0,0,0,.774,1.869Z" transform="translate(-370.965 -253.538)"/>
          <path id="Trazado_608390" data-name="Trazado 608390" d="M346.118,315.623a1.095,1.095,0,1,0-1.628,1.464l2.5,2.785a3.863,3.863,0,1,0,6.852.524l2.014-1.647a1.095,1.095,0,1,0-1.386-1.695L352.46,318.7a3.856,3.856,0,0,0-3.838-.295Zm5.841,6.271a1.675,1.675,0,1,1-2.8-1.238l.006-.005.007-.007a1.672,1.672,0,0,1,2.785,1.25Z" transform="translate(-293.968 -272.911)"/>
          <path id="Trazado_608391" data-name="Trazado 608391" d="M54.124,165.506a2.539,2.539,0,0,0-2.536-2.536H48.341a2.539,2.539,0,0,0-2.536,2.536v3.246a2.539,2.539,0,0,0,2.536,2.536h3.246a2.539,2.539,0,0,0,2.536-2.536Zm-2.189,3.246a.347.347,0,0,1-.347.347H48.341a.347.347,0,0,1-.347-.347v-3.246a.347.347,0,0,1,.347-.347h3.246a.347.347,0,0,1,.347.347Z" transform="translate(-39.119 -142.85)"/>
          <path id="Trazado_608392" data-name="Trazado 608392" d="M133.645,165.506a2.539,2.539,0,0,0-2.536-2.536h-3.246a2.539,2.539,0,0,0-2.536,2.536v3.246a2.539,2.539,0,0,0,2.536,2.536h3.246a2.539,2.539,0,0,0,2.536-2.536Zm-2.189,3.246a.347.347,0,0,1-.347.347h-3.246a.347.347,0,0,1-.347-.347v-3.246a.347.347,0,0,1,.347-.347h3.246a.347.347,0,0,1,.347.347Z" transform="translate(-107.033 -142.85)"/>
          <path id="Trazado_608393" data-name="Trazado 608393" d="M207.383,162.97a2.539,2.539,0,0,0-2.536,2.536v3.246a2.539,2.539,0,0,0,2.536,2.536h3.246a2.539,2.539,0,0,0,2.536-2.536v-3.246a2.539,2.539,0,0,0-2.536-2.536Zm3.593,2.536v3.246a.347.347,0,0,1-.347.347h-3.246a.347.347,0,0,1-.347-.347v-3.246a.347.347,0,0,1,.347-.347h3.246A.347.347,0,0,1,210.977,165.506Z" transform="translate(-174.947 -142.85)"/>
          <path id="Trazado_608394" data-name="Trazado 608394" d="M286.9,162.97a2.539,2.539,0,0,0-2.536,2.536v3.246a2.539,2.539,0,0,0,2.536,2.536h3.246a2.539,2.539,0,0,0,2.536-2.536v-3.246a2.539,2.539,0,0,0-2.536-2.536Zm3.593,2.536v3.246a.347.347,0,0,1-.347.347H286.9a.347.347,0,0,1-.347-.347v-3.246a.347.347,0,0,1,.347-.347h3.246A.347.347,0,0,1,290.5,165.506Z" transform="translate(-242.861 -142.85)"/>
          <path id="Trazado_608395" data-name="Trazado 608395" d="M366.426,162.97a2.539,2.539,0,0,0-2.536,2.536v3.246a2.539,2.539,0,0,0,2.536,2.536h3.246a2.539,2.539,0,0,0,2.536-2.536v-3.246a2.539,2.539,0,0,0-2.536-2.536Zm3.593,2.536v3.246a.347.347,0,0,1-.347.347h-3.246a.347.347,0,0,1-.347-.347v-3.246a.347.347,0,0,1,.347-.347h3.246A.347.347,0,0,1,370.02,165.506Z" transform="translate(-310.775 -142.85)"/>
          <path id="Trazado_608396" data-name="Trazado 608396" d="M54.124,241.267a2.539,2.539,0,0,0-2.536-2.536H48.341a2.539,2.539,0,0,0-2.536,2.536v3.246a2.539,2.539,0,0,0,2.536,2.536h3.246a2.539,2.539,0,0,0,2.536-2.536Zm-2.189,3.246a.347.347,0,0,1-.347.347H48.341a.347.347,0,0,1-.347-.347v-3.246a.347.347,0,0,1,.347-.347h3.246a.347.347,0,0,1,.347.347Z" transform="translate(-39.119 -207.552)"/>
          <path id="Trazado_608397" data-name="Trazado 608397" d="M133.645,241.267a2.539,2.539,0,0,0-2.536-2.536h-3.246a2.539,2.539,0,0,0-2.536,2.536v3.246a2.539,2.539,0,0,0,2.536,2.536h3.246a2.539,2.539,0,0,0,2.536-2.536Zm-2.189,3.246a.347.347,0,0,1-.347.347h-3.246a.347.347,0,0,1-.347-.347v-3.246a.347.347,0,0,1,.347-.347h3.246a.347.347,0,0,1,.347.347Z" transform="translate(-107.033 -207.552)"/>
          <path id="Trazado_608398" data-name="Trazado 608398" d="M213.166,241.267a2.539,2.539,0,0,0-2.536-2.536h-3.246a2.539,2.539,0,0,0-2.536,2.536v3.246a2.539,2.539,0,0,0,2.536,2.536h3.246a2.539,2.539,0,0,0,2.536-2.536Zm-2.189,3.246a.347.347,0,0,1-.347.347h-3.246a.347.347,0,0,1-.347-.347v-3.246a.347.347,0,0,1,.347-.347h3.246a.347.347,0,0,1,.347.347Z" transform="translate(-174.947 -207.552)"/>
          <path id="Trazado_608399" data-name="Trazado 608399" d="M51.588,314.492H48.341a2.539,2.539,0,0,0-2.536,2.536v3.246a2.539,2.539,0,0,0,2.536,2.536h3.246a2.539,2.539,0,0,0,2.536-2.536v-3.246A2.539,2.539,0,0,0,51.588,314.492Zm.347,5.783a.347.347,0,0,1-.347.347H48.341a.347.347,0,0,1-.347-.347v-3.246a.347.347,0,0,1,.347-.347h3.246a.347.347,0,0,1,.347.347Z" transform="translate(-39.119 -272.255)"/>
          <path id="Trazado_608400" data-name="Trazado 608400" d="M131.109,314.492h-3.246a2.539,2.539,0,0,0-2.536,2.536v3.246a2.539,2.539,0,0,0,2.536,2.536h3.246a2.539,2.539,0,0,0,2.536-2.536v-3.246A2.539,2.539,0,0,0,131.109,314.492Zm.347,5.783a.347.347,0,0,1-.347.347h-3.246a.347.347,0,0,1-.347-.347v-3.246a.347.347,0,0,1,.347-.347h3.246a.347.347,0,0,1,.347.347Z" transform="translate(-107.033 -272.255)"/>
        </g>
      </g>
    </g>
  </g>
</svg>
