<svg xmlns="http://www.w3.org/2000/svg" width="85" height="85" viewBox="0 0 85 85">
  <g id="Grupo_160169" data-name="Grupo 160169" transform="translate(-757 -1374.846)">
    <g id="Grupo_160128" data-name="Grupo 160128">
      <circle id="Elipse_5527" data-name="Elipse 5527" cx="42.5" cy="42.5" r="42.5" transform="translate(757 1374.846)" fill="#7d5f54"/>
      <g id="Fill_Outline" data-name="Fill Outline" transform="translate(763 1387.465)">
        <g id="Color" transform="translate(3.126 3.126)">
          <rect id="Rectángulo_45342" data-name="Rectángulo 45342" width="45" height="65" rx="4" transform="translate(19.875 0.409)" fill="#e9f1f2"/>
          <path id="Trazado_608401" data-name="Trazado 608401" d="M66.023,60.4v3.377a4.5,4.5,0,0,1-4.5,4.5H25.5a4.5,4.5,0,0,1-4.5-4.5V7.5A4.5,4.5,0,0,1,25.5,3h2.251a2.2,2.2,0,0,0,.664,1.587A2.2,2.2,0,0,0,30,5.251H61.521A2.258,2.258,0,0,1,63.772,7.5V58.153A2.258,2.258,0,0,0,66.023,60.4Z" transform="translate(-0.74 -3)" fill="#d0d8da"/>
          <path id="Trazado_608402" data-name="Trazado 608402" d="M25,7H61.018V63.279H25Z" transform="translate(-0.237 -2.498)" fill="#fff6df"/>
          <path id="Trazado_608403" data-name="Trazado 608403" d="M25,7V63.279H61.018V7ZM57.642,43.018a4.5,4.5,0,0,1-4.5,4.5h-4.5A15.758,15.758,0,0,1,32.879,31.763V14.879a4.5,4.5,0,0,1,4.5-4.5H53.139a4.5,4.5,0,0,1,4.5,4.5Z" transform="translate(-0.237 -2.498)" fill="#f2e6c5"/>
          <circle id="Elipse_5531" data-name="Elipse 5531" cx="4.5" cy="4.5" r="4.5" transform="translate(30.875 14.409)" fill="#ff7373"/>
          <circle id="Elipse_5532" data-name="Elipse 5532" cx="4.5" cy="4.5" r="4.5" transform="translate(30.875 28.409)" fill="#ff7373"/>
          <g id="Grupo_160086" data-name="Grupo 160086" transform="translate(30.39 15.24)">
            <circle id="Elipse_5533" data-name="Elipse 5533" cx="4.5" cy="4.5" r="4.5" transform="translate(0.484 26.168)" fill="#ef5350"/>
            <path id="Trazado_608404" data-name="Trazado 608404" d="M32.251,16.54v7.789a4.494,4.494,0,0,1,0-7.789Z" transform="translate(-29.999 -16.54)" fill="#ef5350"/>
            <path id="Trazado_608405" data-name="Trazado 608405" d="M34.367,36.926a4.493,4.493,0,0,1-2.116-8.386v.518a15.584,15.584,0,0,0,2.116,7.868Z" transform="translate(-30 -15.033)" fill="#ef5350"/>
          </g>
          <path id="Trazado_608406" data-name="Trazado 608406" d="M3,19H18.758V34.758H3Z" transform="translate(-3 -0.991)" fill="#ffd000"/>
          <path id="Trazado_608407" data-name="Trazado 608407" d="M8,19h4.5v4.5H8Z" transform="translate(-2.372 -0.991)" fill="#ffea00"/>
          <path id="Trazado_608408" data-name="Trazado 608408" d="M18.758,31.381v3.377H3V19H6.377v3.377a9,9,0,0,0,9,9Z" transform="translate(-3 -0.991)" fill="#ffb700"/>
          <path id="Trazado_608409" data-name="Trazado 608409" d="M3,33H18.758V48.758H3Z" transform="translate(-3 0.767)" fill="#ffd000"/>
          <path id="Trazado_608410" data-name="Trazado 608410" d="M8,33h4.5v4.5H8Z" transform="translate(-2.372 0.767)" fill="#ffea00"/>
          <path id="Trazado_608411" data-name="Trazado 608411" d="M18.758,45.381v3.377H3V33H6.377v3.377a9,9,0,0,0,9,9Z" transform="translate(-3 0.767)" fill="#ffb700"/>
          <path id="Trazado_608412" data-name="Trazado 608412" d="M3,47H18.758V62.758H3Z" transform="translate(-3 2.525)" fill="#ffd000"/>
          <path id="Trazado_608413" data-name="Trazado 608413" d="M8,47h4.5v4.5H8Z" transform="translate(-2.372 2.525)" fill="#ffea00"/>
          <path id="Trazado_608414" data-name="Trazado 608414" d="M18.758,59.381v3.377H3V47H6.377v3.377a9,9,0,0,0,9,9Z" transform="translate(-3 2.525)" fill="#ffb700"/>
          <path id="Trazado_608415" data-name="Trazado 608415" d="M17,33H32.758V48.758H17Z" transform="translate(-1.242 0.767)" fill="#ffd000"/>
          <path id="Trazado_608416" data-name="Trazado 608416" d="M22,33h4.5v4.5H22Z" transform="translate(-0.614 0.767)" fill="#ffea00"/>
          <path id="Trazado_608417" data-name="Trazado 608417" d="M32.758,45.381v3.377H17V33h3.377v3.377a9,9,0,0,0,9,9Z" transform="translate(-1.242 0.767)" fill="#ffb700"/>
          <path id="Trazado_608418" data-name="Trazado 608418" d="M17,47H32.758V62.758H17Z" transform="translate(-1.242 2.525)" fill="#ffd000"/>
          <path id="Trazado_608419" data-name="Trazado 608419" d="M22,47h4.5v4.5H22Z" transform="translate(-0.614 2.525)" fill="#ffea00"/>
          <path id="Trazado_608420" data-name="Trazado 608420" d="M32.758,59.381v3.377H17V47h3.377v3.377a9,9,0,0,0,9,9Z" transform="translate(-1.242 2.525)" fill="#ffb700"/>
          <path id="Trazado_608421" data-name="Trazado 608421" d="M31,47H46.758V62.758H31Z" transform="translate(0.516 2.525)" fill="#ffd000"/>
          <path id="Trazado_608422" data-name="Trazado 608422" d="M36,47h4.5v4.5H36Z" transform="translate(1.144 2.525)" fill="#ffea00"/>
          <path id="Trazado_608423" data-name="Trazado 608423" d="M46.758,59.381v3.377H31V47h3.377v3.377a9,9,0,0,0,9,9Z" transform="translate(0.516 2.525)" fill="#ffb700"/>
        </g>
        <g id="Outline_copy" data-name="Outline copy" transform="translate(2 2)">
          <path id="Trazado_608424" data-name="Trazado 608424" d="M68.409,33.516a1.126,1.126,0,0,0,1.126-1.126V7.628A5.635,5.635,0,0,0,63.907,2H27.888A5.635,5.635,0,0,0,22.26,7.628V35.767H20.009V21.135a1.126,1.126,0,0,0-1.126-1.126H3.126A1.126,1.126,0,0,0,2,21.135V42.521a1.126,1.126,0,0,0,2.251,0v-4.5H7.628V41.4a1.126,1.126,0,0,0,1.126,1.126h4.5A1.126,1.126,0,0,0,14.381,41.4V38.018h3.377v10.13a1.126,1.126,0,1,0,2.251,0V38.018h3.377V41.4a1.126,1.126,0,0,0,1.126,1.126h4.5A1.126,1.126,0,0,0,30.139,41.4V38.018h3.377V51.525H4.251v-4.5a1.126,1.126,0,1,0-2.251,0V68.409a1.126,1.126,0,0,0,1.126,1.126H24.512a1.126,1.126,0,0,0,0-2.251h-4.5V53.777h3.377v3.377a1.126,1.126,0,0,0,1.126,1.126h4.5a1.126,1.126,0,0,0,1.126-1.126V53.777h3.377V67.284h-4.5a1.126,1.126,0,0,0,0,2.251H63.907a5.635,5.635,0,0,0,5.628-5.628V36.893a1.126,1.126,0,0,0-2.251,0V63.907a3.377,3.377,0,0,1-3.377,3.377H51.525V65.032H63.907a1.126,1.126,0,0,0,1.126-1.126V16.633a1.126,1.126,0,0,0-2.251,0V62.781H51.525v-9h6.753a1.126,1.126,0,1,0,0-2.251H43.164a5.543,5.543,0,0,0,.483-2.251,5.6,5.6,0,0,0-.421-2.118L45.4,45.708a1.126,1.126,0,1,0-1.249-1.873l-2.169,1.446a5.607,5.607,0,0,0-3.96-1.635,5.543,5.543,0,0,0-2.251.483V40.912a5.543,5.543,0,0,0,2.251.483,5.613,5.613,0,0,0,5.207-7.746L45.4,32.2a1.126,1.126,0,1,0-1.249-1.873l-2.169,1.446a5.573,5.573,0,0,0-7.675-.2l-.113-.083a1.126,1.126,0,1,0-1.351,1.8l.106.08a5.561,5.561,0,0,0-.555,2.4H24.512V7.628a3.377,3.377,0,0,1,3.377-3.377H63.907a3.377,3.377,0,0,1,3.377,3.377V32.391a1.126,1.126,0,0,0,1.126,1.126ZM12.13,53.777v2.251H9.879V53.777Zm-7.879,0H7.628v3.377a1.126,1.126,0,0,0,1.126,1.126h4.5a1.126,1.126,0,0,0,1.126-1.126V53.777h3.377V67.284H4.251Zm23.637,2.251H25.637V53.777h2.251Zm21.386-2.251V67.284H35.767V53.777h3.377v3.377a1.126,1.126,0,0,0,1.126,1.126h4.5A1.126,1.126,0,0,0,45.9,57.153V53.777Zm-5.628,2.251H41.4V53.777h2.251ZM41.4,49.274a3.292,3.292,0,0,1-.908,2.251h-4.72V48.993l1.576,1.182a1.126,1.126,0,0,0,1.3.036l2.639-1.759A3.306,3.306,0,0,1,41.4,49.274ZM40.032,46.58,38.057,47.9l-1.889-1.416a3.274,3.274,0,0,1,1.85-.582,3.341,3.341,0,0,1,2.014.682ZM38.018,32.391a3.341,3.341,0,0,1,2.014.682l-1.975,1.316-1.913-1.429A3.355,3.355,0,0,1,38.018,32.391Zm-3.209,2.377,2.534,1.9a1.126,1.126,0,0,0,1.3.036l2.639-1.759a3.306,3.306,0,0,1,.113.823,3.377,3.377,0,0,1-3.377,3.377,3.292,3.292,0,0,1-2.251-.908V36.893a1.126,1.126,0,0,0-1.126-1.126A3.341,3.341,0,0,1,34.809,34.768ZM12.13,22.26v2.251H9.879V22.26Zm-7.879,0H7.628v3.377a1.126,1.126,0,0,0,1.126,1.126h4.5a1.126,1.126,0,0,0,1.126-1.126V22.26h3.377V35.767H4.251ZM12.13,40.27H9.879V38.018H12.13Zm15.758-2.251V40.27H25.637V38.018Z" transform="translate(-2 -2)"/>
          <path id="Trazado_608425" data-name="Trazado 608425" d="M61.144,12.753a1.126,1.126,0,0,0,1.126-1.126v-4.5A1.126,1.126,0,0,0,61.144,6H25.126A1.126,1.126,0,0,0,24,7.126V31.888a1.126,1.126,0,0,0,2.251,0V8.251H60.018v3.377A1.126,1.126,0,0,0,61.144,12.753Z" transform="translate(0.763 -1.498)" fill="#323232"/>
          <path id="Trazado_608426" data-name="Trazado 608426" d="M42.318,15.5a1.126,1.126,0,0,0-1.561-.312l-2.169,1.446a5.573,5.573,0,0,0-7.675-.2l-.113-.083a1.126,1.126,0,1,0-1.351,1.8l.106.08a5.561,5.561,0,0,0-.555,2.4A5.628,5.628,0,1,0,39.835,18.51l2.171-1.447a1.126,1.126,0,0,0,.312-1.561Zm-7.69,1.75a3.341,3.341,0,0,1,2.014.682l-1.975,1.316L32.753,17.82a3.355,3.355,0,0,1,1.875-.568ZM38,20.628a3.377,3.377,0,1,1-6.753,0,3.341,3.341,0,0,1,.168-1l2.534,1.9a1.126,1.126,0,0,0,1.3.036l2.639-1.759a3.306,3.306,0,0,1,.113.823Z" transform="translate(1.39 -0.368)" fill="#323232"/>
          <path id="Trazado_608427" data-name="Trazado 608427" d="M53.507,22H41.126a1.126,1.126,0,0,0,0,2.251H53.507a1.126,1.126,0,1,0,0-2.251Z" transform="translate(2.772 0.512)" fill="#323232"/>
          <path id="Trazado_608428" data-name="Trazado 608428" d="M54.633,35.126A1.126,1.126,0,0,0,53.507,34H41.126a1.126,1.126,0,0,0,0,2.251H53.507A1.126,1.126,0,0,0,54.633,35.126Z" transform="translate(2.772 2.018)" fill="#323232"/>
          <path id="Trazado_608429" data-name="Trazado 608429" d="M53.381,18H42.126a1.126,1.126,0,1,0,0,2.251H53.381a1.126,1.126,0,1,0,0-2.251Z" transform="translate(2.898 0.009)" fill="#323232"/>
          <path id="Trazado_608430" data-name="Trazado 608430" d="M53.256,30H43.126a1.126,1.126,0,0,0,0,2.251h10.13a1.126,1.126,0,1,0,0-2.251Z" transform="translate(3.023 1.516)" fill="#323232"/>
          <path id="Trazado_608431" data-name="Trazado 608431" d="M43.126,42a1.126,1.126,0,0,0,0,2.251h9a1.126,1.126,0,0,0,0-2.251Z" transform="translate(3.023 3.023)" fill="#323232"/>
          <path id="Trazado_608432" data-name="Trazado 608432" d="M52.507,12.251a1.126,1.126,0,0,0,0-2.251H40.126a1.126,1.126,0,1,0,0,2.251Z" transform="translate(2.646 -0.995)" fill="#323232"/>
          <path id="Trazado_608433" data-name="Trazado 608433" d="M36.5,12.251A1.126,1.126,0,0,0,36.5,10H33.126a1.126,1.126,0,0,0,0,2.251Z" transform="translate(1.767 -0.995)" fill="#323232"/>
        </g>
      </g>
    </g>
  </g>
</svg>
