<svg xmlns="http://www.w3.org/2000/svg" width="85" height="85" viewBox="0 0 85 85">
  <g id="Grupo_160170" data-name="Grupo 160170" transform="translate(-1106 -1374.846)">
    <g id="Grupo_160129" data-name="Grupo 160129">
      <circle id="Elipse_5528" data-name="Elipse 5528" cx="42.5" cy="42.5" r="42.5" transform="translate(1106 1374.846)" fill="#7d5f54"/>
      <g id="planificacion-a-largo-plazo" transform="translate(1118 1389.691)">
        <path id="Trazado_608434" data-name="Trazado 608434" d="M51.588,66.68V2H12.78L2,12.78v53.9Z" transform="translate(0.078 0.078)" fill="#e9f1f2"/>
        <path id="Trazado_608435" data-name="Trazado 608435" d="M6,28H46.964V58.184H6Z" transform="translate(0.39 2.106)" fill="#f7fafd"/>
        <path id="Trazado_608436" data-name="Trazado 608436" d="M12.78,2V12.78H2" transform="translate(0.078 0.078)" fill="#c8cded"/>
        <path id="Trazado_608437" data-name="Trazado 608437" d="M12,56.78V46h6.468V56.78" transform="translate(0.858 3.51)" fill="#78a0d4"/>
        <path id="Trazado_608438" data-name="Trazado 608438" d="M12,46h4.312v7.546H12Z" transform="translate(0.858 3.51)" fill="#8fb8e5"/>
        <path id="Trazado_608439" data-name="Trazado 608439" d="M22,57.092V42h6.468V57.092" transform="translate(1.638 3.198)" fill="#5e87ca"/>
        <path id="Trazado_608440" data-name="Trazado 608440" d="M22,42h4.312V53.858H22Z" transform="translate(1.638 3.198)" fill="#78a0d4"/>
        <path id="Trazado_608441" data-name="Trazado 608441" d="M32,57.4V38h6.468V57.4" transform="translate(2.418 2.886)" fill="#4c6cb5"/>
        <path id="Trazado_608442" data-name="Trazado 608442" d="M32,38h4.312V54.17H32Z" transform="translate(2.418 2.886)" fill="#5e87ca"/>
        <path id="Trazado_608443" data-name="Trazado 608443" d="M34.841,25.091H24.779L14,35.872l5.39,5.39,9.7-9.7H49.574L62.51,18.624l3.234,3.234V10H53.886l3.234,3.234L45.262,25.092H37.716" transform="translate(1.014 0.702)" fill="#fd7f23"/>
        <circle id="Elipse_5534" data-name="Elipse 5534" cx="10.78" cy="10.78" r="10.78" transform="translate(45.198 36.574)" fill="#fff6df"/>
        <path id="Trazado_608444" data-name="Trazado 608444" d="M56.706,50.464l-5.39-5.39A1.078,1.078,0,0,1,51,44.312V40h2.156v3.866L58.23,48.94Z" transform="translate(3.9 3.042)" fill="#c0dafc"/>
        <circle id="Elipse_5535" data-name="Elipse 5535" cx="2.156" cy="2.156" r="2.156" transform="translate(53.822 45.198)" fill="#4c6cb5"/>
        <path id="Trazado_608445" data-name="Trazado 608445" d="M37.56,21.092V27.56l-8.624-6.468H18.156A2.156,2.156,0,0,1,16,18.936V8.156A2.156,2.156,0,0,1,18.156,6H41.872a2.156,2.156,0,0,1,2.156,2.156v10.78a2.156,2.156,0,0,1-2.156,2.156Z" transform="translate(1.17 0.39)" fill="#f0ae42"/>
        <path id="Trazado_608446" data-name="Trazado 608446" d="M40.794,6H18.156A2.156,2.156,0,0,0,16,8.156v10.78H38.638a2.156,2.156,0,0,0,2.156-2.156Z" transform="translate(1.17 0.39)" fill="#f9d266"/>
        <path id="Trazado_608447" data-name="Trazado 608447" d="M21,10H38.248v2.156H21Z" transform="translate(1.56 0.702)" fill="#fce797"/>
        <path id="Trazado_608448" data-name="Trazado 608448" d="M19,14H40.56v2.156H19Z" transform="translate(1.404 1.014)" fill="#fce797"/>
        <path id="Trazado_608449" data-name="Trazado 608449" d="M63.524,20.85,66,23.322a1.078,1.078,0,0,0,1.84-.762V10.7a1.078,1.078,0,0,0-1.078-1.078H54.9a1.078,1.078,0,0,0-.762,1.84l2.472,2.472L52.744,17.8V2.078A1.078,1.078,0,0,0,51.666,1H12.858a1.078,1.078,0,0,0-.762.316L1.316,12.1A1.078,1.078,0,0,0,1,12.858v53.9a1.078,1.078,0,0,0,1.078,1.078H51.666a1.078,1.078,0,0,0,1.078-1.078V58.753a11.858,11.858,0,1,0,0-22.8V31.63ZM58.9,13.174,57.5,11.78H65.68v8.178l-1.394-1.394a1.078,1.078,0,0,0-1.524,0l-12.62,12.62H30.106a1.078,1.078,0,0,0-.762.316L20.4,40.44l-3.866-3.866,9.7-9.7H35.5l2.587,1.94a1.078,1.078,0,0,0,1.725-.862V26.872h6.468a1.078,1.078,0,0,0,.762-.316L58.9,14.7a1.078,1.078,0,0,0,0-1.524ZM46.276,40.563a11.791,11.791,0,0,0,0,13.594v5.056H41.964V40.886a1.078,1.078,0,0,0-1.078-1.078H34.418a1.078,1.078,0,0,0-1.078,1.078V59.212H31.184V45.2a1.078,1.078,0,0,0-1.078-1.078H23.638A1.078,1.078,0,0,0,22.56,45.2V59.212H20.4v-9.7a1.078,1.078,0,0,0-1.078-1.078H12.858A1.078,1.078,0,0,0,11.78,49.51v9.7H7.468V31.184H18.879l-4.627,4.628a1.078,1.078,0,0,0,0,1.524l5.39,5.39a1.078,1.078,0,0,0,1.524,0l9.386-9.386H46.276ZM39.808,59.212H35.5V41.964h4.312Zm-10.78,0H24.716V46.276h4.312Zm-10.78,0H13.936V50.588h4.312Zm19.4-37.73v4.312l-6.9-5.174a1.078,1.078,0,0,0-.647-.216H19.326a1.078,1.078,0,0,1-1.078-1.078V8.546a1.078,1.078,0,0,1,1.078-1.078H43.042A1.078,1.078,0,0,1,44.12,8.546v10.78A1.078,1.078,0,0,1,43.042,20.4H38.73A1.078,1.078,0,0,0,37.652,21.482ZM11.78,4.68v7.1H4.68Zm38.808,61H3.156V13.936h9.7a1.078,1.078,0,0,0,1.078-1.078v-9.7H50.588v16.8L45.83,24.716H39.808V22.56h3.234a3.234,3.234,0,0,0,3.234-3.234V8.546a3.234,3.234,0,0,0-3.234-3.234H19.326a3.234,3.234,0,0,0-3.234,3.234v10.78a3.234,3.234,0,0,0,3.234,3.234H29.747l2.873,2.156H25.794a1.078,1.078,0,0,0-.762.316l-4,4H6.39a1.078,1.078,0,0,0-1.078,1.078V60.29A1.078,1.078,0,0,0,6.39,61.368H47.354a1.078,1.078,0,0,0,1.078-1.078v-3.8A11.871,11.871,0,0,0,50.588,57.9ZM65.68,47.354a9.7,9.7,0,1,1-9.7-9.7,9.7,9.7,0,0,1,9.7,9.7Zm-17.248-9.14V33.34h2.156V36.8a11.872,11.872,0,0,0-2.156,1.409Z" transform="translate(0 0)"/>
        <path id="Trazado_608450" data-name="Trazado 608450" d="M21,10H38.248v2.156H21Z" transform="translate(1.56 0.702)"/>
        <path id="Trazado_608451" data-name="Trazado 608451" d="M19,14H40.56v2.156H19Z" transform="translate(1.404 1.014)"/>
        <path id="Trazado_608452" data-name="Trazado 608452" d="M52.156,46.468a2.113,2.113,0,0,0,.551-.081l4.077,4.077,1.524-1.524-4.077-4.077a2.113,2.113,0,0,0,.081-.551,2.148,2.148,0,0,0-1.078-1.856V40H51.078v2.456a2.15,2.15,0,0,0,1.078,4.012Z" transform="translate(3.822 3.042)"/>
      </g>
    </g>
  </g>
</svg>
