<svg xmlns="http://www.w3.org/2000/svg" width="86.117" height="71.78" viewBox="0 0 86.117 71.78">
  <g id="Grupo_160176" data-name="Grupo 160176" transform="translate(6555.577 6305.963)">
    <g id="Grupo_158833" data-name="Grupo 158833" transform="translate(-7458 3411.601)">
      <path id="Unión_10" data-name="Unión 10" d="M8.251,10.548s.592-.9-.291-.665-2.032,1.451-1.768.465S20.086-4.71,28.01,1.639c0,0,4.713,4.315-5.876,9.225S10.395,25.326,10.392,27.086s.544,6.074-.594,5.064.45-6.036-.715-3.883.185,10.726,3.065,14.08c1.711,1.992,1.6,2.71,1.232,2.964a.573.573,0,0,1-.818-.223c-.649-1.207-2.772-5.036-3.125-4.17-.506,1.243,1.662,4.552,2.822,5.919s1.885,2.749.453,2.835H12.7C11.172,49.674-11.982,31.866,8.251,10.548Z" transform="translate(903 -9716.7)" fill="#fcc02d" stroke="rgba(0,0,0,0)" stroke-miterlimit="10" stroke-width="1" opacity="0.42"/>
      <path id="Unión_11" data-name="Unión 11" d="M0,50.788C33.9,59.2,49.06,40.152,49.8,28.747S44.935,14.78,44.75,13.667a16.163,16.163,0,0,1-.5-2.454c-.2-1.793-2.4-1.127-3.784-3.914s2.023-1.778,2.426-1.477,3.074,4.4,3.131,2.386-4.593-7.03-4.593-7.03c.018-1.055.51-1.308,1.216-1.119,1.87.5,5.235,4.1,5.235,4.1,18.28,25.586-.163,40.657-2.247,41.935s-1.218,1.661-1.218,1.661c3.579-.727,2.074.556,2.074.556A35.968,35.968,0,0,1,23.3,56.14,57.347,57.347,0,0,1,0,50.788Z" transform="translate(932.115 -9702.424)" fill="#fd7f23" stroke="rgba(0,0,0,0)" stroke-miterlimit="10" stroke-width="1" opacity="0.48"/>
      <path id="Unión_9" data-name="Unión 9" d="M.257,31.668c2.556-13.842,15.15-18,20.8-21.856C28.76,4.553,22.152,0,22.152,0s.1.02.292.071c1.513.406,8.5,2.747,11.611,12.044,3.109,5.289,11.424,7.026,19.277,8.639,5.471,1.124,10.718,2.188,13.825,4.35,7.566,5.27,8.124,7,8.786,10.54S81.223,59.747,52.319,67a41.881,41.881,0,0,1-10.213,1.266C17.542,68.273-2.515,46.675.257,31.668Z" transform="translate(906.017 -9716.625)" fill="#fff" stroke="rgba(0,0,0,0)" stroke-miterlimit="10" stroke-width="1"/>
      <ellipse id="Elipse_5489" data-name="Elipse 5489" cx="5.047" cy="5.047" rx="5.047" ry="5.047" transform="translate(942.76 -9714.281)" fill="#fff"/>
    </g>
    <g id="Grupo_160175" data-name="Grupo 160175" transform="translate(-203.401 -6.406)">
      <g id="Grupo_160173" data-name="Grupo 160173" transform="translate(91 -1213.288)">
        <path id="Trazado_604104" data-name="Trazado 604104" d="M56.194,32.426V1.688A1.688,1.688,0,0,0,54.506,0H25.374a1.688,1.688,0,0,0-1.193.494L12.814,11.862a1.688,1.688,0,0,0-.494,1.193V55.917A1.688,1.688,0,0,0,14.008,57.6h40.5a12.646,12.646,0,0,0,1.688-25.179ZM23.687,5.762v5.6h-5.6ZM15.7,54.229V14.742h9.679a1.688,1.688,0,0,0,1.688-1.688V3.375H52.819v29.05a12.587,12.587,0,0,0-6.089,2.568H21.478a1.688,1.688,0,1,0,0,3.375h22.24a12.576,12.576,0,0,0-1.442,3.375h-20.8a1.688,1.688,0,1,0,0,3.375H41.863a12.613,12.613,0,0,0,4.053,9.11Zm38.811,0a9.271,9.271,0,1,1,9.27-9.27A9.281,9.281,0,0,1,54.506,54.229Z" transform="translate(-6439.835 -5079)" fill="#7d5f54"/>
        <path id="Trazado_604106" data-name="Trazado 604106" d="M80.4,194.4h24.975a1.688,1.688,0,1,0,0-3.375H80.4a1.688,1.688,0,1,0,0,3.375Z" transform="translate(-6498.761 -5248.537)" fill="#7d5f54"/>
        <path id="Trazado_604107" data-name="Trazado 604107" d="M175.038,134.4h14.328a1.688,1.688,0,1,0,0-3.375H175.038a1.688,1.688,0,1,0,0,3.375Z" transform="translate(-6582.748 -5195.287)" fill="#7d5f54"/>
        <path id="Trazado_604108" data-name="Trazado 604108" d="M80.4,254.4h24.975a1.688,1.688,0,0,0,0-3.375H80.4a1.688,1.688,0,0,0,0,3.375Z" transform="translate(-6498.761 -5301.786)" fill="#7d5f54"/>
      </g>
      <g id="Grupo_160174" data-name="Grupo 160174" transform="translate(-28 -76)">
        <path id="Trazado_609084" data-name="Trazado 609084" d="M337.769,353.752l-2.375,2.375,4.546,4.546,7.9-7.9-2.375-2.375-5.53,5.53Z" transform="translate(-6608.189 -6527.267)" fill="#7d5f54"/>
      </g>
    </g>
  </g>
</svg>
