<svg xmlns="http://www.w3.org/2000/svg" width="86.117" height="71.78" viewBox="0 0 86.117 71.78">
  <g id="Grupo_160168" data-name="Grupo 160168" transform="translate(6555.577 5667.864)">
    <g id="Grupo_158835" data-name="Grupo 158835" transform="translate(-7458 4049.7)">
      <path id="Unión_10" data-name="Unión 10" d="M8.251,10.548s.592-.9-.291-.665-2.032,1.451-1.768.465S20.086-4.71,28.01,1.639c0,0,4.713,4.315-5.876,9.225S10.395,25.326,10.392,27.086s.544,6.074-.594,5.064.45-6.036-.715-3.883.185,10.726,3.065,14.08c1.711,1.992,1.6,2.71,1.232,2.964a.573.573,0,0,1-.818-.223c-.649-1.207-2.772-5.036-3.125-4.17-.506,1.243,1.662,4.552,2.822,5.919s1.885,2.749.453,2.835H12.7C11.172,49.674-11.982,31.866,8.251,10.548Z" transform="translate(903 -9716.7)" fill="#fcc02d" stroke="rgba(0,0,0,0)" stroke-miterlimit="10" stroke-width="1" opacity="0.42"/>
      <path id="Unión_11" data-name="Unión 11" d="M0,50.788C33.9,59.2,49.06,40.152,49.8,28.747S44.935,14.78,44.75,13.667a16.163,16.163,0,0,1-.5-2.454c-.2-1.793-2.4-1.127-3.784-3.914s2.023-1.778,2.426-1.477,3.074,4.4,3.131,2.386-4.593-7.03-4.593-7.03c.018-1.055.51-1.308,1.216-1.119,1.87.5,5.235,4.1,5.235,4.1,18.28,25.586-.163,40.657-2.247,41.935s-1.218,1.661-1.218,1.661c3.579-.727,2.074.556,2.074.556A35.968,35.968,0,0,1,23.3,56.14,57.347,57.347,0,0,1,0,50.788Z" transform="translate(932.115 -9702.424)" fill="#fd7f23" stroke="rgba(0,0,0,0)" stroke-miterlimit="10" stroke-width="1" opacity="0.48"/>
      <path id="Unión_9" data-name="Unión 9" d="M.257,31.668c2.556-13.842,15.15-18,20.8-21.856C28.76,4.553,22.152,0,22.152,0s.1.02.292.071c1.513.406,8.5,2.747,11.611,12.044,3.109,5.289,11.424,7.026,19.277,8.639,5.471,1.124,10.718,2.188,13.825,4.35,7.566,5.27,8.124,7,8.786,10.54S81.223,59.747,52.319,67a41.881,41.881,0,0,1-10.213,1.266C17.542,68.273-2.515,46.675.257,31.668Z" transform="translate(906.017 -9716.625)" fill="#fff" stroke="rgba(0,0,0,0)" stroke-miterlimit="10" stroke-width="1"/>
      <ellipse id="Elipse_5489" data-name="Elipse 5489" cx="5.047" cy="5.047" rx="5.047" ry="5.047" transform="translate(942.76 -9714.281)" fill="#fff"/>
    </g>
    <g id="correccion" transform="translate(-6540.83 -5666)">
      <path id="Trazado_604094" data-name="Trazado 604094" d="M45.749,57.317a5.373,5.373,0,0,0,5.373-5.373V14.383a1.791,1.791,0,0,0-.528-1.272L38,.528A1.791,1.791,0,0,0,36.739,0H13.2A5.373,5.373,0,0,0,7.83,5.373v46.57A5.373,5.373,0,0,0,13.2,57.317ZM38.53,6.117l6.475,6.475H40.322A1.791,1.791,0,0,1,38.53,10.8ZM11.412,51.943V5.373A1.791,1.791,0,0,1,13.2,3.582H34.948V10.8a5.373,5.373,0,0,0,5.373,5.373H47.54V51.943a1.791,1.791,0,0,1-1.791,1.791H13.2a1.791,1.791,0,0,1-1.791-1.791Z" transform="translate(0)" fill="#7d5f54"/>
      <path id="Trazado_604095" data-name="Trazado 604095" d="M15.829,52.364a1.784,1.784,0,0,0,2.534,0l2.328-2.293,2.337,2.337a1.792,1.792,0,1,0,2.534-2.534l-2.337-2.328,2.337-2.337a1.792,1.792,0,1,0-2.534-2.534l-2.337,2.293-2.329-2.337a1.792,1.792,0,0,0-2.534,2.534L18.166,47.5l-2.337,2.328a1.791,1.791,0,0,0,0,2.534Z" transform="translate(-0.78 -4.397)" fill="#7d5f54"/>
      <path id="Trazado_604096" data-name="Trazado 604096" d="M36.418,52.348a1.784,1.784,0,0,0,2.508.027l7.5-7.165a1.793,1.793,0,1,0-2.481-2.588L37.672,48.6l-2.355-2.364a1.791,1.791,0,1,0-2.534,2.526Z" transform="translate(-2.544 -4.399)" fill="#7d5f54"/>
    </g>
  </g>
</svg>
