<svg xmlns="http://www.w3.org/2000/svg" width="86.117" height="71.78" viewBox="0 0 86.117 71.78">
  <g id="Grupo_160171" data-name="Grupo 160171" transform="translate(6555.577 4766.864)">
    <g id="Grupo_158838" data-name="Grupo 158838" transform="translate(-7458 4950.7)">
      <path id="Unión_10" data-name="Unión 10" d="M8.251,10.548s.592-.9-.291-.665-2.032,1.451-1.768.465S20.086-4.71,28.01,1.639c0,0,4.713,4.315-5.876,9.225S10.395,25.326,10.392,27.086s.544,6.074-.594,5.064.45-6.036-.715-3.883.185,10.726,3.065,14.08c1.711,1.992,1.6,2.71,1.232,2.964a.573.573,0,0,1-.818-.223c-.649-1.207-2.772-5.036-3.125-4.17-.506,1.243,1.662,4.552,2.822,5.919s1.885,2.749.453,2.835H12.7C11.172,49.674-11.982,31.866,8.251,10.548Z" transform="translate(903 -9716.7)" fill="#fcc02d" stroke="rgba(0,0,0,0)" stroke-miterlimit="10" stroke-width="1" opacity="0.42"/>
      <path id="Unión_11" data-name="Unión 11" d="M0,50.788C33.9,59.2,49.06,40.152,49.8,28.747S44.935,14.78,44.75,13.667a16.163,16.163,0,0,1-.5-2.454c-.2-1.793-2.4-1.127-3.784-3.914s2.023-1.778,2.426-1.477,3.074,4.4,3.131,2.386-4.593-7.03-4.593-7.03c.018-1.055.51-1.308,1.216-1.119,1.87.5,5.235,4.1,5.235,4.1,18.28,25.586-.163,40.657-2.247,41.935s-1.218,1.661-1.218,1.661c3.579-.727,2.074.556,2.074.556A35.968,35.968,0,0,1,23.3,56.14,57.347,57.347,0,0,1,0,50.788Z" transform="translate(932.115 -9702.424)" fill="#fd7f23" stroke="rgba(0,0,0,0)" stroke-miterlimit="10" stroke-width="1" opacity="0.48"/>
      <path id="Unión_9" data-name="Unión 9" d="M.257,31.668c2.556-13.842,15.15-18,20.8-21.856C28.76,4.553,22.152,0,22.152,0s.1.02.292.071c1.513.406,8.5,2.747,11.611,12.044,3.109,5.289,11.424,7.026,19.277,8.639,5.471,1.124,10.718,2.188,13.825,4.35,7.566,5.27,8.124,7,8.786,10.54S81.223,59.747,52.319,67a41.881,41.881,0,0,1-10.213,1.266C17.542,68.273-2.515,46.675.257,31.668Z" transform="translate(906.017 -9716.625)" fill="#fff" stroke="rgba(0,0,0,0)" stroke-miterlimit="10" stroke-width="1"/>
      <ellipse id="Elipse_5489" data-name="Elipse 5489" cx="5.047" cy="5.047" rx="5.047" ry="5.047" transform="translate(942.76 -9714.281)" fill="#fff"/>
    </g>
    <g id="software-de-impresion-3d" transform="translate(-6540.861 -4763.678)">
      <g id="Grupo_158847" data-name="Grupo 158847">
        <g id="Grupo_158846" data-name="Grupo 158846">
          <path id="Trazado_604109" data-name="Trazado 604109" d="M51.24,0H4.937A4.943,4.943,0,0,0,0,4.937V37.964A4.943,4.943,0,0,0,4.937,42.9H19.86v3.567a8.243,8.243,0,0,0-6.583,8.064,1.646,1.646,0,0,0,1.646,1.646H41.256A1.646,1.646,0,0,0,42.9,54.532a8.243,8.243,0,0,0-6.583-8.064V42.9H51.24a4.943,4.943,0,0,0,4.937-4.937V4.937A4.943,4.943,0,0,0,51.24,0ZM39.328,52.886H16.85a4.946,4.946,0,0,1,4.656-3.292H34.672A4.946,4.946,0,0,1,39.328,52.886ZM23.151,46.3V42.9h9.875v3.4Zm29.735-8.339A1.648,1.648,0,0,1,51.24,39.61H4.937a1.648,1.648,0,0,1-1.646-1.646V36.318H52.886Zm0-4.937H3.292V4.937A1.648,1.648,0,0,1,4.937,3.292h46.3a1.648,1.648,0,0,1,1.646,1.646Z" fill="#7d5f54"/>
        </g>
      </g>
      <g id="Grupo_158849" data-name="Grupo 158849" transform="translate(9.875 9.985)">
        <g id="Grupo_158848" data-name="Grupo 158848">
          <path id="Trazado_604110" data-name="Trazado 604110" d="M98.339,91H91.646a1.646,1.646,0,0,0,0,3.292h6.693a1.646,1.646,0,0,0,0-3.292Z" transform="translate(-90 -91)" fill="#7d5f54"/>
        </g>
      </g>
      <g id="Grupo_158851" data-name="Grupo 158851" transform="translate(9.875 16.568)">
        <g id="Grupo_158850" data-name="Grupo 158850">
          <path id="Trazado_604111" data-name="Trazado 604111" d="M98.339,151H91.646a1.646,1.646,0,0,0,0,3.292h6.693a1.646,1.646,0,0,0,0-3.292Z" transform="translate(-90 -151)" fill="#7d5f54"/>
        </g>
      </g>
      <g id="Grupo_158853" data-name="Grupo 158853" transform="translate(9.875 23.151)">
        <g id="Grupo_158852" data-name="Grupo 158852">
          <path id="Trazado_604112" data-name="Trazado 604112" d="M98.339,211H91.646a1.646,1.646,0,0,0,0,3.292h6.693a1.646,1.646,0,0,0,0-3.292Z" transform="translate(-90 -211)" fill="#7d5f54"/>
        </g>
      </g>
      <g id="Grupo_158855" data-name="Grupo 158855" transform="translate(26.443 6.551)">
        <g id="Grupo_158854" data-name="Grupo 158854">
          <path id="Trazado_604113" data-name="Trazado 604113" d="M259.939,64.906c-.195-.114,1.465.888-8.184-4.962a1.646,1.646,0,0,0-1.7,0L241.815,64.9A1.653,1.653,0,0,0,241,66.325v9.946a1.646,1.646,0,0,0,.795,1.409l8.229,4.973a1.653,1.653,0,0,0,1.7,0l8.229-4.973a1.646,1.646,0,0,0,.795-1.409V66.325A1.661,1.661,0,0,0,259.939,64.906Zm-10.71,13.42-4.938-2.984v-6.1l4.938,2.984Zm1.646-8.951-5.043-3.048,5.068-3.052,5.027,3.048Zm6.583,5.968-4.938,2.984v-6.1l4.938-2.984Z" transform="translate(-240.999 -59.706)" fill="#7d5f54"/>
        </g>
      </g>
    </g>
  </g>
</svg>
