<svg xmlns="http://www.w3.org/2000/svg" xmlns:xlink="http://www.w3.org/1999/xlink" width="85" height="91" viewBox="0 0 85 91">
  <defs>
    <clipPath id="clip-path">
      <rect id="Rect치ngulo_45259" data-name="Rect치ngulo 45259" width="85" height="91" fill="#fff" stroke="#707070" stroke-width="1"/>
    </clipPath>
  </defs>
  <g id="Grupo_160140" data-name="Grupo 160140" transform="translate(-332 -6380)">
    <g id="Enmascarar_grupo_143" data-name="Enmascarar grupo 143" transform="translate(332 6380)" clip-path="url(#clip-path)">
      <rect id="Rect치ngulo_45251" data-name="Rect치ngulo 45251" width="85" height="91" rx="22" fill="#fcc02d"/>
    </g>
    <g id="acaro" transform="translate(340 6391)">
      <g id="Grupo_160030" data-name="Grupo 160030" transform="translate(11.583 13.637)">
        <path id="Trazado_607372" data-name="Trazado 607372" d="M365.2,208.648a1.043,1.043,0,0,1-.918-.547,7.042,7.042,0,0,0-8.74-3.264,1.043,1.043,0,0,1-.766-1.941,9.129,9.129,0,0,1,11.34,4.211,1.044,1.044,0,0,1-.916,1.541Zm0,0" transform="translate(-318.562 -188.984)" fill="#3a3d51"/>
        <path id="Trazado_607373" data-name="Trazado 607373" d="M341.539,115.291a1.043,1.043,0,0,1-.605-1.894,7.041,7.041,0,0,0,2.035-9.105,1.043,1.043,0,1,1,1.834-.994,9.13,9.13,0,0,1-2.661,11.8A1.036,1.036,0,0,1,341.539,115.291Zm0,0" transform="translate(-306.752 -102.711)" fill="#3a3d51"/>
        <path id="Trazado_607374" data-name="Trazado 607374" d="M313.251,292.3a5.662,5.662,0,0,1-1.14-.115l-2.129-.439a1.043,1.043,0,0,1,.422-2.044l2.129.439a4.184,4.184,0,0,0,3.409-.923,6.234,6.234,0,0,1,5.158-1.357l.462.1a1.043,1.043,0,0,1-.422,2.043l-.462-.1a4.187,4.187,0,0,0-3.409.923A6.368,6.368,0,0,1,313.251,292.3Zm0,0" transform="translate(-279.579 -263.079)" fill="#3a3d51"/>
        <path id="Trazado_607375" data-name="Trazado 607375" d="M190.265,348.809h-.042a1.042,1.042,0,0,1-1-1.083,6.788,6.788,0,0,1,3.442-5.666,4.729,4.729,0,0,0,2.26-3,1.043,1.043,0,1,1,2.027.494,6.817,6.817,0,0,1-3.254,4.317,4.715,4.715,0,0,0-2.39,3.935A1.043,1.043,0,0,1,190.265,348.809Zm0,0" transform="translate(-175.615 -306.873)" fill="#3a3d51"/>
        <path id="Trazado_607376" data-name="Trazado 607376" d="M247.431,336.785a1.044,1.044,0,0,1-.994-.729,6.791,6.791,0,0,1,1.318-6.5,4.729,4.729,0,0,0,1.11-3.587,1.043,1.043,0,0,1,2.074-.222,6.814,6.814,0,0,1-1.6,5.164,4.716,4.716,0,0,0-.915,4.512,1.043,1.043,0,0,1-.679,1.31A1.059,1.059,0,0,1,247.431,336.785Zm0,0" transform="translate(-224.935 -295.217)" fill="#3a3d51"/>
        <path id="Trazado_607377" data-name="Trazado 607377" d="M137.423,154.228a1.04,1.04,0,0,1-.813-.388,4.729,4.729,0,0,0-3.321-1.751,6.79,6.79,0,0,1-5.526-3.663,1.043,1.043,0,1,1,1.852-.961,4.716,4.716,0,0,0,3.838,2.544,6.817,6.817,0,0,1,4.782,2.522,1.043,1.043,0,0,1-.811,1.7Zm0,0" transform="translate(-122.237 -140.985)" fill="#3a3d51"/>
        <path id="Trazado_607378" data-name="Trazado 607378" d="M236.065,112.931a1.032,1.032,0,0,1-.381-.072,1.043,1.043,0,0,1-.59-1.352l.794-2.023a6.234,6.234,0,0,1,3.952-3.582,4.186,4.186,0,0,0,2.634-2.352l.172-.439a1.043,1.043,0,1,1,1.943.762l-.172.439a6.234,6.234,0,0,1-3.952,3.582,4.187,4.187,0,0,0-2.634,2.352l-.793,2.023A1.043,1.043,0,0,1,236.065,112.931Zm0,0" transform="translate(-215.319 -102.448)" fill="#3a3d51"/>
        <path id="Trazado_607379" data-name="Trazado 607379" d="M91.018,208.716a6.812,6.812,0,0,1-3.5-.971,1.043,1.043,0,1,1,1.07-1.791,4.715,4.715,0,0,0,4.6.145,6.818,6.818,0,0,1,5.393-.37,1.043,1.043,0,0,1-.692,1.968,4.728,4.728,0,0,0-3.745.257,6.838,6.838,0,0,1-3.129.763Zm0,0" transform="translate(-87.012 -191.643)" fill="#3a3d51"/>
      </g>
      <path id="Trazado_607380" data-name="Trazado 607380" d="M141.818,188.615c-8.02,4.348-16.678,4.1-20.063-.374a6.912,6.912,0,0,1-.567-.879,6.619,6.619,0,0,1-.427-.954c-1.9-5.278,2.618-12.667,10.637-17.015,8.515-4.616,17.753-4.056,20.629,1.252S150.334,184,141.818,188.615Zm0,0" transform="translate(-104.31 -144.133)" fill="#71c799"/>
      <path id="Trazado_607381" data-name="Trazado 607381" d="M121.183,187.362c-2.878-5.308,1.694-13.354,10.21-17.97s17.752-4.055,20.629,1.253c-1.034-1.908-8.776.286-17.293,4.9S120.148,185.454,121.183,187.362Zm0,0" transform="translate(-104.305 -144.133)" fill="#33a39d"/>
      <path id="Trazado_607382" data-name="Trazado 607382" d="M269.254,183.813a18.67,18.67,0,0,0-9.3-17.158c5.88-1.138,11.082.244,13.114,3.991S273.417,179.507,269.254,183.813Zm0,0" transform="translate(-225.349 -144.134)" fill="#65687f"/>
      <path id="Trazado_607383" data-name="Trazado 607383" d="M259.953,166.656a18.386,18.386,0,0,1,5.327,4.612c4.149-1.435,7.168-1.762,7.787-.62l-.012-.022C271.015,166.9,265.822,165.521,259.953,166.656Zm0,0" transform="translate(-225.349 -144.136)" fill="#3a3d51"/>
      <path id="Trazado_607384" data-name="Trazado 607384" d="M151.456,209.13l-26.88,14.57a6.917,6.917,0,0,1-.567-.879,6.621,6.621,0,0,1-.427-.954l26.88-14.57a1.043,1.043,0,1,1,.994,1.833Zm0,0" transform="translate(-107.132 -179.592)" fill="#65687f"/>
      <path id="Trazado_607385" data-name="Trazado 607385" d="M34.078,0A34.078,34.078,0,1,0,68.155,34.078,34.077,34.077,0,0,0,34.078,0ZM6.13,34.078a27.914,27.914,0,0,1,11.921-22.9L44.729,59.922A27.96,27.96,0,0,1,6.13,34.078ZM50.1,56.975,23.426,8.233A27.951,27.951,0,0,1,50.1,56.975Zm0,0" fill="#e9314d"/>
    </g>
  </g>
</svg>
