<svg xmlns="http://www.w3.org/2000/svg" width="70.657" height="66.916" viewBox="0 0 70.657 66.916">
  <g id="Grupo_160168" data-name="Grupo 160168" transform="translate(-304.236 -6318.996)">
    <g id="Grupo_159957" data-name="Grupo 159957" transform="translate(0 2916.496)">
      <g id="editar_1_" data-name="editar(1)" transform="translate(303.8 3401.134)">
        <path id="Trazado_603810" data-name="Trazado 603810" d="M15.88,9.81C12.249,23.24,2.8,30.582,1.048,37.055s-1.7,21.07,28.07,29.12S68.2,57.121,70.127,50C79.14,16.667,22.311-13.977,15.88,9.81Z" transform="translate(0 0)" fill="#efefef"/>
        <path id="Trazado_603811" data-name="Trazado 603811" d="M6.753,17.795V11.75H50.231v6.045c0,.386-1.665.7-3.727.7H10.48c-2.062,0-3.727-.312-3.727-.7Z" transform="translate(63.584 5.063) rotate(90)" fill="#fd7f23"/>
        <g id="Grupo_158785" data-name="Grupo 158785" transform="translate(51.98 5.658)">
          <path id="Trazado_603819" data-name="Trazado 603819" d="M0,0H2.011V4.023H0Z" transform="translate(4.885 50.996) rotate(-45)" fill="#fd7f23"/>
          <path id="Trazado_603820" data-name="Trazado 603820" d="M0,0H2.011V4.023H0Z" transform="translate(13.063 59.174) rotate(-45)" fill="#fd7f23"/>
          <path id="Trazado_603821" data-name="Trazado 603821" d="M0,0H4.023V2.011H0Z" transform="translate(4.528 60.594) rotate(-45)" fill="#fd7f23"/>
          <path id="Trazado_603822" data-name="Trazado 603822" d="M0,0H4.023V2.011H0Z" transform="translate(12.707 52.419) rotate(-45)" fill="#fd7f23"/>
          <path id="Trazado_603823" data-name="Trazado 603823" d="M32.017,9.534a3.017,3.017,0,1,1,3.017-3.017A3.021,3.021,0,0,1,32.017,9.534Zm0-4.023a1.006,1.006,0,1,0,1.006,1.006A1.006,1.006,0,0,0,32.017,5.511Z" transform="translate(-23.089 -3.5)" fill="#fcc02d"/>
        </g>
      </g>
    </g>
    <path id="pc-de-escritorio" d="M45.249,12.375H28.021a5.452,5.452,0,0,0-5.446,5.446v5.963H3.93A3.934,3.934,0,0,0,0,27.714v18.6a3.934,3.934,0,0,0,3.93,3.93h8.094l-.389,3.15H9.822a3.614,3.614,0,0,0,0,7.228H49.11a1.584,1.584,0,0,0,1.584-1.584V17.821A5.452,5.452,0,0,0,45.249,12.375ZM3.168,46.311v-18.6a.772.772,0,0,1,.762-.762H34.475a.772.772,0,0,1,.762.762v18.6a.772.772,0,0,1-.762.762H3.93a.772.772,0,0,1-.762-.762Zm12.048,3.93h7.972l.389,3.15h-8.75ZM9.822,57.45a.445.445,0,0,1,0-.891H28.583a.445.445,0,0,1,0,.891Zm37.7,0H32.169a3.607,3.607,0,0,0-3.585-4.059H26.77l-.389-3.15h8.094a3.934,3.934,0,0,0,3.93-3.93V29.5h4.987a1.584,1.584,0,1,0,0-3.168H38.154a3.936,3.936,0,0,0-3.679-2.55H25.743V17.821a2.28,2.28,0,0,1,2.277-2.277H45.249a2.28,2.28,0,0,1,2.277,2.277Zm-2.55-36.959a1.584,1.584,0,0,1-1.584,1.584H29.877a1.584,1.584,0,0,1,0-3.168H43.392A1.584,1.584,0,0,1,44.976,20.492ZM43.555,43.834A1.733,1.733,0,1,1,41.823,42.1,1.736,1.736,0,0,1,43.555,43.834Zm0,7.129a1.733,1.733,0,1,1-1.733-1.733A1.736,1.736,0,0,1,43.555,50.963Z" transform="translate(307.613 6313.96)" fill-rule="evenodd"/>
  </g>
</svg>
