<svg xmlns="http://www.w3.org/2000/svg" width="70.657" height="66.916" viewBox="0 0 70.657 66.916">
  <g id="Grupo_160171" data-name="Grupo 160171" transform="translate(-304.236 -2070.981)">
    <g id="Grupo_159977" data-name="Grupo 159977" transform="translate(0 -1331.519)">
      <g id="editar_1_" data-name="editar(1)" transform="translate(303.8 3401.134)">
        <path id="Trazado_603810" data-name="Trazado 603810" d="M15.88,9.81C12.249,23.24,2.8,30.582,1.048,37.055s-1.7,21.07,28.07,29.12S68.2,57.121,70.127,50C79.14,16.667,22.311-13.977,15.88,9.81Z" transform="translate(0 0)" fill="#efefef"/>
        <path id="Trazado_603811" data-name="Trazado 603811" d="M6.753,17.795V11.75H43.765v6.045c0,.386-1.417.7-3.172.7H9.925c-1.755,0-3.172-.312-3.172-.7Z" transform="translate(30.864 1.063) rotate(90)" fill="#fd7f23"/>
        <g id="Grupo_158785" data-name="Grupo 158785" transform="translate(51.98 5.658)">
          <path id="Trazado_603819" data-name="Trazado 603819" d="M0,0H2.011V4.023H0Z" transform="translate(0.357 38.996) rotate(-45)" fill="#fd7f23"/>
          <path id="Trazado_603820" data-name="Trazado 603820" d="M0,0H2.011V4.023H0Z" transform="translate(8.534 47.174) rotate(-45)" fill="#fd7f23"/>
          <path id="Trazado_603821" data-name="Trazado 603821" d="M0,0H4.023V2.011H0Z" transform="translate(0 48.594) rotate(-45)" fill="#fd7f23"/>
          <path id="Trazado_603822" data-name="Trazado 603822" d="M0,0H4.023V2.011H0Z" transform="translate(8.179 40.419) rotate(-45)" fill="#fd7f23"/>
          <path id="Trazado_603823" data-name="Trazado 603823" d="M32.017,9.534a3.017,3.017,0,1,1,3.017-3.017A3.021,3.021,0,0,1,32.017,9.534Zm0-4.023a1.006,1.006,0,1,0,1.006,1.006A1.006,1.006,0,0,0,32.017,5.511Z" transform="translate(-23.089 -3.5)" fill="#fcc02d"/>
        </g>
        <g id="libro_8_" data-name="libro(8)" transform="translate(-61.369 5.658)">
          <path id="Trazado_606335" data-name="Trazado 606335" d="M73.589,45.287A1.589,1.589,0,0,1,72,43.7V6.555A6.562,6.562,0,0,1,78.555,0h28.4a1.589,1.589,0,0,1,1.589,1.589V38.136a1.589,1.589,0,0,1-3.178,0V3.178H78.555a3.38,3.38,0,0,0-3.377,3.377V43.7A1.589,1.589,0,0,1,73.589,45.287Z"/>
          <path id="Trazado_606336" data-name="Trazado 606336" d="M106.958,382.3H79.151a7.151,7.151,0,1,1,0-14.3h27.808a1.589,1.589,0,0,1,0,3.178H79.151a3.973,3.973,0,1,0,0,7.945h27.808a1.589,1.589,0,0,1,0,3.178Z" transform="translate(0 -331.453)"/>
          <path id="Trazado_606337" data-name="Trazado 606337" d="M157.4,427.178H129.589a1.589,1.589,0,0,1,0-3.178H157.4a1.589,1.589,0,0,1,0,3.178Z" transform="translate(-50.438 -381.891)"/>
          <path id="Trazado_606338" data-name="Trazado 606338" d="M145.589,39.725A1.589,1.589,0,0,1,144,38.136V1.589a1.589,1.589,0,1,1,3.178,0V38.136A1.589,1.589,0,0,1,145.589,39.725Z" transform="translate(-64.849)"/>
        </g>
      </g>
    </g>
  </g>
</svg>
