<svg xmlns="http://www.w3.org/2000/svg" width="70.657" height="66.916" viewBox="0 0 70.657 66.916">
  <g id="editar_1_" data-name="editar(1)" transform="translate(-0.436 -1.366)">
    <path id="Trazado_603810" data-name="Trazado 603810" d="M15.88,9.81C12.249,23.24,2.8,30.582,1.048,37.055s-1.7,21.07,28.07,29.12S68.2,57.121,70.127,50C79.14,16.667,22.311-13.977,15.88,9.81Z" transform="translate(0 0)" fill="#efefef"/>
    <path id="Trazado_603811" data-name="Trazado 603811" d="M6.753,37.9V11.75h35.2V37.9a3.013,3.013,0,0,1-3.017,3.017H9.77A3.013,3.013,0,0,1,6.753,37.9Z" transform="translate(6.389 10.503)" fill="#f3f3f1"/>
    <path id="Trazado_603812" data-name="Trazado 603812" d="M11.279,37.9V11.75H6.753V37.9A3.013,3.013,0,0,0,9.77,40.916H14.3A3.013,3.013,0,0,1,11.279,37.9Z" transform="translate(6.389 10.503)" fill="#d5dbe1"/>
    <path id="Trazado_603813" data-name="Trazado 603813" d="M38.157,24.671,23.936,38.891l-9.293,2.192,2.192-9.313L31.056,17.55Z" transform="translate(14.37 16.369)" fill="#ffd264"/>
    <path id="Trazado_603814" data-name="Trazado 603814" d="M34.892,22.628,29.9,27.616,22.8,20.5l4.968-4.968a3,3,0,0,1,4.264,0l2.856,2.836a3.035,3.035,0,0,1,0,4.264Z" transform="translate(22.623 13.423)" fill="#f3f3f1"/>
    <path id="Trazado_603815" data-name="Trazado 603815" d="M20.858,33.782,34.07,20.571,31.056,17.55,16.835,31.771l-2.192,9.313L19.4,39.961Z" transform="translate(14.37 16.369)" fill="#fcc02d"/>
    <path id="Trazado_603816" data-name="Trazado 603816" d="M26.826,22.507l4.968-4.968a2.953,2.953,0,0,1,1.5-.764l-1.255-1.247a3,3,0,0,0-4.264,0L22.8,20.5l7.1,7.121,1.01-1.01Z" transform="translate(22.623 13.423)" fill="#d5dbe1"/>
    <path id="Trazado_603817" data-name="Trazado 603817" d="M41.953,9.767v7.04H6.753V9.767A3.013,3.013,0,0,1,9.77,6.75H38.936A3.013,3.013,0,0,1,41.953,9.767Z" transform="translate(6.389 5.445)" fill="#fd7f23"/>
    <path id="Trazado_603818" data-name="Trazado 603818" d="M14.3,6.75H9.77A3.013,3.013,0,0,0,6.753,9.767v7.04h4.526V9.767A3.013,3.013,0,0,1,14.3,6.75Z" transform="translate(6.389 5.445)" fill="#c66015"/>
    <g id="Grupo_158785" data-name="Grupo 158785" transform="translate(51.98 5.658)">
      <path id="Trazado_603819" data-name="Trazado 603819" d="M0,0H2.011V4.023H0Z" transform="translate(0.357 46.996) rotate(-45)" fill="#fcc02d"/>
      <path id="Trazado_603820" data-name="Trazado 603820" d="M0,0H2.011V4.023H0Z" transform="translate(8.534 55.174) rotate(-45)" fill="#fcc02d"/>
      <path id="Trazado_603821" data-name="Trazado 603821" d="M0,0H4.023V2.011H0Z" transform="translate(0 56.594) rotate(-45)" fill="#fcc02d"/>
      <path id="Trazado_603822" data-name="Trazado 603822" d="M0,0H4.023V2.011H0Z" transform="translate(8.179 48.419) rotate(-45)" fill="#fcc02d"/>
      <path id="Trazado_603823" data-name="Trazado 603823" d="M32.017,9.534a3.017,3.017,0,1,1,3.017-3.017A3.021,3.021,0,0,1,32.017,9.534Zm0-4.023a1.006,1.006,0,1,0,1.006,1.006A1.006,1.006,0,0,0,32.017,5.511Z" transform="translate(-23.089 -3.5)" fill="#fcc02d"/>
    </g>
    <path id="Trazado_603824" data-name="Trazado 603824" d="M15.4,46.273a1.51,1.51,0,0,1-1.468-1.855l2.192-9.3a1.493,1.493,0,0,1,.4-.72l19.2-19.2a4.633,4.633,0,0,1,6.4,0l2.844,2.844a4.523,4.523,0,0,1,0,6.4l-19.2,19.2a1.511,1.511,0,0,1-.72.4l-9.3,2.192a1.384,1.384,0,0,1-.348.042ZM18.96,36.224l-1.535,6.513L23.938,41.2l18.9-18.9a1.505,1.505,0,0,0,0-2.132l-2.844-2.844a1.511,1.511,0,0,0-2.134,0Z" transform="translate(13.607 12.689)"/>
    <path id="Trazado_603825" data-name="Trazado 603825" d="M0,0H3.017V10.057H0Z" transform="translate(44.345 34.993) rotate(-45)"/>
    <path id="Trazado_603826" data-name="Trazado 603826" d="M19.758,48.24H10.526A4.53,4.53,0,0,1,6,43.715V10.526A4.53,4.53,0,0,1,10.526,6H39.692a4.53,4.53,0,0,1,4.526,4.526v9.313H41.2V10.526a1.509,1.509,0,0,0-1.509-1.509H10.526a1.509,1.509,0,0,0-1.509,1.509V43.715a1.509,1.509,0,0,0,1.509,1.509h9.233Z" transform="translate(5.628 4.687)"/>
    <path id="Trazado_603827" data-name="Trazado 603827" d="M6.75,11h35.2v3.017H6.75Z" transform="translate(6.386 9.744)"/>
    <path id="Trazado_603828" data-name="Trazado 603828" d="M6.75,16h27.8v3.017H6.75Z" transform="translate(6.386 14.801)"/>
    <path id="Trazado_603829" data-name="Trazado 603829" d="M24.35,33.373H6.75V30.356H22.842V11.75h3.017V31.864A1.509,1.509,0,0,1,24.35,33.373Z" transform="translate(6.386 10.503)"/>
  </g>
</svg>
