<svg xmlns="http://www.w3.org/2000/svg" width="70.657" height="66.916" viewBox="0 0 70.657 66.916">
  <g id="Grupo_160167" data-name="Grupo 160167" transform="translate(-304.236 -1665.164)">
    <g id="Grupo_160158" data-name="Grupo 160158" transform="translate(0 -1737.336)">
      <g id="editar_1_" data-name="editar(1)" transform="translate(303.8 3401.134)">
        <path id="Trazado_603810" data-name="Trazado 603810" d="M15.88,9.81C12.249,23.24,2.8,30.582,1.048,37.055s-1.7,21.07,28.07,29.12S68.2,57.121,70.127,50C79.14,16.667,22.311-13.977,15.88,9.81Z" transform="translate(0 0)" fill="#efefef"/>
        <g id="Grupo_158785" data-name="Grupo 158785" transform="translate(51.98 5.658)">
          <path id="Trazado_603819" data-name="Trazado 603819" d="M0,0H2.011V4.023H0Z" transform="translate(4.885 50.996) rotate(-45)" fill="#fd7f23"/>
          <path id="Trazado_603820" data-name="Trazado 603820" d="M0,0H2.011V4.023H0Z" transform="translate(13.063 59.174) rotate(-45)" fill="#fd7f23"/>
          <path id="Trazado_603821" data-name="Trazado 603821" d="M0,0H4.023V2.011H0Z" transform="translate(4.528 60.594) rotate(-45)" fill="#fd7f23"/>
          <path id="Trazado_603822" data-name="Trazado 603822" d="M0,0H4.023V2.011H0Z" transform="translate(12.707 52.419) rotate(-45)" fill="#fd7f23"/>
          <path id="Trazado_603823" data-name="Trazado 603823" d="M32.017,9.534a3.017,3.017,0,1,1,3.017-3.017A3.021,3.021,0,0,1,32.017,9.534Zm0-4.023a1.006,1.006,0,1,0,1.006,1.006A1.006,1.006,0,0,0,32.017,5.511Z" transform="translate(-23.089 -3.5)" fill="#fcc02d"/>
        </g>
        <rect id="Rectángulo_45377" data-name="Rectángulo 45377" width="43" height="12" rx="6" transform="translate(9.2 13.202)" fill="#fd7f23"/>
      </g>
    </g>
    <g id="video_1_" data-name="video(1)" transform="translate(312 1674.692)">
      <g id="object_3_">
        <g id="Grupo_160161" data-name="Grupo 160161">
          <path id="Trazado_609081" data-name="Trazado 609081" d="M37.7,0H8.612A8.622,8.622,0,0,0,0,8.612V37.7a8.622,8.622,0,0,0,8.612,8.612H37.7A8.622,8.622,0,0,0,46.308,37.7V8.612A8.622,8.622,0,0,0,37.7,0Zm5.415,8.612V11.4h-8.1L28.956,3.2H37.7A5.421,5.421,0,0,1,43.111,8.612ZM24.983,3.2,31.04,11.4H21.325L15.268,3.2ZM3.2,8.612A5.422,5.422,0,0,1,8.612,3.2H11.3L17.352,11.4H3.2Zm34.5,34.5H8.612A5.422,5.422,0,0,1,3.2,37.7V14.6H43.111V37.7A5.422,5.422,0,0,1,37.7,43.111Z"/>
        </g>
        <g id="Grupo_160162" data-name="Grupo 160162" transform="translate(16.639 19.956)">
          <path id="Trazado_609082" data-name="Trazado 609082" d="M199.008,228.163l-12.646-7.3a1.6,1.6,0,0,0-2.4,1.384v14.6a1.6,1.6,0,0,0,2.4,1.384l12.646-7.3a1.6,1.6,0,0,0,0-2.769Zm-11.846,5.917v-9.065l7.85,4.532Z" transform="translate(-183.965 -220.647)"/>
        </g>
      </g>
    </g>
  </g>
</svg>
